<?xml version="1.0" encoding="UTF-8" standalone="no"?>
<!-- Created with Inkscape (http://www.inkscape.org/) -->

<svg
   xmlns:dc="http://purl.org/dc/elements/1.1/"
   xmlns:cc="http://creativecommons.org/ns#"
   xmlns:rdf="http://www.w3.org/1999/02/22-rdf-syntax-ns#"
   xmlns:svg="http://www.w3.org/2000/svg"
   xmlns="http://www.w3.org/2000/svg"
   xmlns:sodipodi="http://sodipodi.sourceforge.net/DTD/sodipodi-0.dtd"
   xmlns:inkscape="http://www.inkscape.org/namespaces/inkscape"
   version="1.1"
   width="183.39207"
   height="147.23479"
   id="svg2"
   inkscape:version="0.47 r22583"
   sodipodi:docname="logo.svg">
  <metadata
     id="metadata27">
    <rdf:RDF>
      <cc:Work
         rdf:about="">
        <dc:format>image/svg+xml</dc:format>
        <dc:type
           rdf:resource="http://purl.org/dc/dcmitype/StillImage" />
      </cc:Work>
    </rdf:RDF>
  </metadata>
  <sodipodi:namedview
     pagecolor="#ffffff"
     bordercolor="#666666"
     borderopacity="1"
     objecttolerance="10"
     gridtolerance="10"
     guidetolerance="10"
     inkscape:pageopacity="0"
     inkscape:pageshadow="2"
     inkscape:window-width="1920"
     inkscape:window-height="1125"
     id="namedview25"
     showgrid="false"
     inkscape:zoom="5.0743655"
     inkscape:cx="53.900298"
     inkscape:cy="72.992106"
     inkscape:window-x="0"
     inkscape:window-y="24"
     inkscape:window-maximized="1"
     inkscape:current-layer="svg2" />
  <defs
     id="defs4">
    <inkscape:perspective
       sodipodi:type="inkscape:persp3d"
       inkscape:vp_x="0 : 526.18109 : 1"
       inkscape:vp_y="0 : 1000 : 0"
       inkscape:vp_z="744.09448 : 526.18109 : 1"
       inkscape:persp3d-origin="372.04724 : 350.78739 : 1"
       id="perspective29" />
  </defs>
  <g
     id="g3044">
    <g
       transform="translate(-33.839683,-168.87714)"
       id="g4005">
      <text
         x="107.87781"
         y="213.90144"
         id="text2824"
         xml:space="preserve"
         style="font-size:40px;font-style:normal;font-variant:normal;font-weight:normal;font-stretch:normal;fill:#000000;fill-opacity:1;stroke:none;font-family:SPQR;-inkscape-font-specification:SPQR"><tspan
           x="107.87781"
           y="213.90144"
           id="tspan2826">€</tspan></text>
      <path
         d="m 156.55294,201.01838 -125.248729,0 L 93.928574,92.549797 156.55294,201.01838 z"
         transform="matrix(1.2808826,0,0,0.50909386,5.2242412,122.16411)"
         id="path2830"
         style="fill:none;stroke:#000000;stroke-width:0.99935538;stroke-miterlimit:4;stroke-opacity:1;stroke-dasharray:none;marker-start:none" />
      <path
         d="m 156.55294,201.01838 -125.248729,0 L 93.928574,92.549797 156.55294,201.01838 z"
         transform="matrix(1.1076798,0,0,0.44025346,21.492933,132.26879)"
         id="path2830-3"
         style="fill:none;stroke:#000000;stroke-width:0.99935538;stroke-miterlimit:4;stroke-opacity:1;stroke-dasharray:none;marker-start:none" />
    </g>
    <g
       transform="translate(-52.945182,-168.87714)"
       id="g3986">
      <rect
         width="182.58507"
         height="11.616755"
         x="53.348682"
         y="304.09167"
         id="rect3940"
         style="fill:none;stroke:#000000;stroke-width:0.80699998;stroke-miterlimit:4;stroke-opacity:1;stroke-dasharray:none" />
      <rect
         width="177.67172"
         height="8.2186327"
         x="55.805355"
         y="305.79074"
         id="rect3940-2"
         style="fill:none;stroke:#000000;stroke-width:0.66958761;stroke-miterlimit:4;stroke-opacity:1;stroke-dasharray:none" />
    </g>
    <g
       id="g3025">
      <rect
         style="fill:none;stroke:#000000;stroke-width:0.80699998;stroke-miterlimit:4;stroke-opacity:1;stroke-dasharray:none"
         id="rect3871"
         y="57.568508"
         x="10.890914"
         height="76.071434"
         width="2.8571429" />
      <rect
         style="fill:none;stroke:#000000;stroke-width:0.80699998;stroke-miterlimit:4;stroke-opacity:1;stroke-dasharray:none"
         id="rect3871-2"
         y="57.568508"
         x="16.611387"
         height="76.071434"
         width="2.8571429" />
      <rect
         style="fill:none;stroke:#000000;stroke-width:0.80699998;stroke-miterlimit:4;stroke-opacity:1;stroke-dasharray:none"
         id="rect3871-1"
         y="57.568508"
         x="13.751151"
         height="76.071434"
         width="2.8571429" />
      <rect
         style="fill:none;stroke:#000000;stroke-width:0.80699998;stroke-miterlimit:4;stroke-opacity:1;stroke-dasharray:none"
         id="rect3871-7"
         y="57.568508"
         x="163.92354"
         height="76.071434"
         width="2.8571429" />
      <rect
         style="fill:none;stroke:#000000;stroke-width:0.80699998;stroke-miterlimit:4;stroke-opacity:1;stroke-dasharray:none"
         id="rect3871-2-3"
         y="57.568508"
         x="169.64401"
         height="76.071434"
         width="2.8571429" />
      <rect
         style="fill:none;stroke:#000000;stroke-width:0.80699998;stroke-miterlimit:4;stroke-opacity:1;stroke-dasharray:none"
         id="rect3871-1-8"
         y="57.568508"
         x="166.78377"
         height="76.071434"
         width="2.8571429" />
      <g
         id="g3013">
        <g
           id="text2818"
           style="font-size:40px;font-style:normal;font-variant:normal;font-weight:normal;font-stretch:normal;text-align:center;line-height:89.99999762%;writing-mode:lr-tb;text-anchor:middle;fill:#000000;fill-opacity:1;stroke:none;font-family:SPQR;-inkscape-font-specification:SPQR">
          <path
             id="path2968"
             style="font-size:42px"
             d="m 29.986229,90.879232 0,0.546 16.632,0 c 0.83998,0 1.60998,-0.252 2.31,-0.756 0.699978,-0.503999 1.315978,-1.119998 1.848,-1.848 0.559977,-0.727997 0.993976,-1.511996 1.302,-2.352 0.335976,-0.839994 0.545975,-1.595994 0.63,-2.268 0.02797,-0.615992 -0.07003,-1.329992 -0.294,-2.142 -0.224024,-0.81199 -0.560024,-1.553989 -1.008,-2.226 -0.420023,-0.671988 -0.952023,-1.189987 -1.596,-1.554 -0.616021,-0.363987 -1.316021,-0.419987 -2.1,-0.168 l 0.546,-0.546 c -0.11202,-0.111986 -0.26602,-0.223986 -0.462,-0.336 -0.19602,-0.111986 -0.392019,-0.209986 -0.588,-0.294 -0.168019,-0.111985 -0.322019,-0.223985 -0.462,-0.336 -0.112019,-0.139985 -0.168019,-0.279985 -0.168,-0.42 -1.9e-5,-0.251985 0.167981,-0.573984 0.504,-0.966 0.36398,-0.419983 0.75598,-0.881983 1.176,-1.386 0.447979,-0.531982 0.839979,-1.105981 1.176,-1.722 0.363978,-0.61598 0.545978,-1.273979 0.546,-1.974 -2.2e-5,-1.651977 -0.420022,-2.967976 -1.26,-3.948 -0.84002,-1.007974 -1.904019,-1.777973 -3.192,-2.31 -1.288016,-0.531972 -2.716015,-0.881972 -4.284,-1.05 -1.540012,-0.167971 -3.02401,-0.251971 -4.452,-0.252 l -3.024,0 -0.756,0 c -0.308005,2.9e-5 -0.602004,0.01403 -0.882,0.042 -0.252004,2.9e-5 -0.490004,2.9e-5 -0.714,0 l -0.336,0 -0.546,0.546 c 0.223997,0.08403 0.545997,0.168028 0.966,0.252 0.447996,0.05603 0.895996,0.140028 1.344,0.252 0.475995,0.112028 0.909994,0.266027 1.302,0.462 0.391993,0.168027 0.657993,0.392027 0.798,0.672 l 0,1.848 c -7e-6,0.868024 -7e-6,1.792023 0,2.772 0.02799,0.952021 0.04199,1.87602 0.042,2.772 l 0,1.764 0,7.434 c -7e-6,1.176009 -0.05601,2.366008 -0.168,3.57 -0.08401,1.204005 -0.224007,2.436004 -0.42,3.696 -0.05601,0.560002 -0.252006,0.980002 -0.588,1.26 -0.308006,0.280001 -0.686005,0.490001 -1.134,0.63 -0.420004,0.112001 -0.882004,0.182001 -1.386,0.21 -0.476003,0.028 -0.910002,0.07 -1.302,0.126 m 7.728,-1.218 0,-1.554 1.134,1.092 0,-0.252 c -1.1e-5,-1.259996 -0.09801,-2.463995 -0.294,-3.612 -0.19601,-1.147993 -0.29401,-2.351992 -0.294,-3.612 l 0,-0.756 c -1e-5,-0.307989 -1e-5,-0.657989 0,-1.05 0.02799,-0.391988 0.04199,-0.741988 0.042,-1.05 l 0,-0.756 c 0.307989,-0.307986 0.587989,-0.475986 0.84,-0.504 0.279989,-0.02799 0.629988,-0.04199 1.05,-0.042 0.699987,1.4e-5 1.455986,0.126014 2.268,0.378 0.811985,0.224013 1.567984,0.476013 2.268,0.756 0.727982,0.280012 1.343982,0.546012 1.848,0.798 0.503981,0.224012 0.783981,0.336012 0.84,0.336 0.05598,1.2e-5 0.11198,1.2e-5 0.168,0 0.08398,-0.02799 0.12598,-0.04199 0.126,-0.042 0.13998,-0.111988 0.33598,-0.293988 0.588,-0.546 0.251979,-0.251988 0.419979,-0.447987 0.504,-0.588 0.615979,0.504012 1.077978,0.966012 1.386,1.386 0.335977,0.392011 0.559977,0.812011 0.672,1.26 0.139977,0.42001 0.209977,0.910009 0.21,1.47 0.02798,0.560008 0.04198,1.232007 0.042,2.016 l 0,0.588 c -2.3e-5,0.308006 -0.01402,0.658005 -0.042,1.05 -0.02802,0.364005 -0.04202,0.546004 -0.042,0.546 l -1.092,1.134 c 0.08398,-0.111997 0.195978,-0.293996 0.336,-0.546 0.139978,-0.251996 0.209977,-0.447996 0.21,-0.588 -2.3e-5,-0.139995 -0.01402,-0.419995 -0.042,-0.84 -2.2e-5,-0.419994 -0.01402,-0.853994 -0.042,-1.302 -2.2e-5,-0.475993 -0.02802,-0.923993 -0.084,-1.344 -0.02802,-0.447992 -0.07002,-0.755991 -0.126,-0.924 l 0,3.318 c -0.05602,-0.08399 -0.126022,-0.279994 -0.21,-0.588 -0.05602,-0.335994 -0.126022,-0.685993 -0.21,-1.05 -0.08402,-0.363993 -0.168022,-0.699992 -0.252,-1.008 -0.05602,-0.335992 -0.09802,-0.559991 -0.126,-0.672 l 0,-0.546 0,-0.588 0.546,0.588 c -2.2e-5,-0.05599 -2.2e-5,-0.139991 0,-0.252 0.02798,-0.11199 0.04198,-0.22399 0.042,-0.336 -2.2e-5,-0.39199 -0.08402,-0.699989 -0.252,-0.924 -0.168022,-0.251989 -0.476021,-0.489989 -0.924,-0.714 -0.08402,0.02801 -0.196021,0.112011 -0.336,0.252 -0.11202,0.112011 -0.18202,0.210011 -0.21,0.294 l 0,0.252 c -2e-5,0.72801 0.09798,1.428009 0.294,2.1 0.223979,0.672008 0.335979,1.386007 0.336,2.142 -2.1e-5,0.728006 -0.154021,1.428005 -0.462,2.1 -0.28002,0.672004 -0.67202,1.260003 -1.176,1.764 -0.504019,0.504002 -1.092018,0.910002 -1.764,1.218 -0.672017,0.280001 -1.386016,0.420001 -2.142,0.42 -0.980014,1e-6 -1.918013,-0.111999 -2.814,-0.336 -0.896012,-0.223998 -1.834011,-0.335998 -2.814,-0.336 m -1.638,-10.416 0.588,0 c -9e-6,0.756011 -0.02801,1.62401 -0.084,2.604 -0.02801,0.952009 -0.08401,1.918008 -0.168,2.898 -0.05601,0.952006 -0.126008,1.876005 -0.21,2.772 -0.05601,0.896003 -0.09801,1.638002 -0.126,2.226 l -0.546,0 0,-0.546 c -8e-6,-0.363997 0.01399,-1.007997 0.042,-1.932 0.05599,-0.951995 0.111992,-1.959994 0.168,-3.024 0.05599,-1.091992 0.111992,-2.099991 0.168,-3.024 0.05599,-0.951989 0.111992,-1.609988 0.168,-1.974 m 13.314,7.182 c 0.307978,5e-6 0.461978,0.182005 0.462,0.546 -2.2e-5,0.392004 -0.154022,0.588004 -0.462,0.588 -0.308021,4e-6 -0.462021,-0.195996 -0.462,-0.588 -2.1e-5,-0.363995 0.153979,-0.545995 0.462,-0.546 m -12.222,-2.226 c 0.195991,0.112007 0.29399,0.392007 0.294,0.84 -1e-5,0.476006 -0.09801,0.756006 -0.294,0.84 -0.08401,0.08401 -0.154009,0.02801 -0.21,-0.168 -0.02801,-0.223994 -0.04201,-0.447994 -0.042,-0.672 -9e-6,-0.223993 0.01399,-0.419993 0.042,-0.588 0.05599,-0.195993 0.125991,-0.279993 0.21,-0.252 m -0.546,-6.636 c 0.307991,1.4e-5 0.461991,0.182014 0.462,0.546 -9e-6,0.364013 -0.154009,0.546013 -0.462,0.546 -0.308008,1.3e-5 -0.462008,-0.181987 -0.462,-0.546 -8e-6,-0.363986 0.153992,-0.545986 0.462,-0.546 m 10.542,0 c -0.05602,0.196014 -0.154019,0.294013 -0.294,0.294 -0.140019,1.3e-5 -0.238019,-0.09799 -0.294,-0.294 -0.02802,-0.195986 0.06998,-0.293986 0.294,-0.294 0.251981,1.4e-5 0.349981,0.09801 0.294,0.294 m -11.088,-13.314 0.546,0 0,12.768 -0.546,0 0,-12.768 m 8.862,12.222 c 0.307983,1.5e-5 0.461983,0.182015 0.462,0.546 -1.7e-5,0.364014 -0.154017,0.546014 -0.462,0.546 -0.308017,1.4e-5 -0.462017,-0.181986 -0.462,-0.546 -1.7e-5,-0.363985 0.153983,-0.545985 0.462,-0.546 m -6.09,-11.676 c 0.05599,2.7e-5 0.167989,2.7e-5 0.336,0 0.195989,2.7e-5 0.391988,2.7e-5 0.588,0 0.223988,-0.02797 0.419988,-0.04197 0.588,-0.042 0.195987,2.7e-5 0.335987,2.7e-5 0.42,0 1.791985,2.7e-5 3.121984,0.532026 3.99,1.596 0.895982,1.064024 1.343982,2.492023 1.344,4.284 -1.8e-5,1.17602 -0.182018,2.100019 -0.546,2.772 -0.364017,0.644017 -0.882017,1.134017 -1.554,1.47 -0.644015,0.336016 -1.414015,0.546016 -2.31,0.63 -0.868013,0.05602 -1.820012,0.08402 -2.856,0.084 l 0,-10.794 m 7.182,8.904 c 0.307982,1.8e-5 0.461981,0.182017 0.462,0.546 -1.9e-5,0.364017 -0.154018,0.546017 -0.462,0.546 -0.308018,1.7e-5 -0.462018,-0.181983 -0.462,-0.546 -1.8e-5,-0.363983 0.153982,-0.545982 0.462,-0.546 m 2.268,-3.36 c -2e-5,-0.335979 -0.01402,-0.629978 -0.042,-0.882 -2e-5,-0.279978 -0.04202,-0.545978 -0.126,-0.798 -0.08402,-0.251977 -0.21002,-0.503977 -0.378,-0.756 -0.14002,-0.251976 -0.336019,-0.545976 -0.588,-0.882 l -1.134,0.546 c 0.111982,-0.08398 0.237982,-0.251976 0.378,-0.504 0.139981,-0.251975 0.209981,-0.447975 0.21,-0.588 -1.9e-5,-0.08397 -0.07002,-0.195975 -0.21,-0.336 -0.140018,-0.139975 -0.266018,-0.209975 -0.378,-0.21 0.05598,-0.139974 0.223982,-0.293974 0.504,-0.462 0.279981,-0.167974 0.489981,-0.195974 0.63,-0.084 0.33598,0.168026 0.61598,0.448026 0.84,0.84 0.22398,0.392025 0.39198,0.826024 0.504,1.302 0.139979,0.448023 0.237979,0.910023 0.294,1.386 0.05598,0.448022 0.08398,0.840022 0.084,1.176 -2.1e-5,0.78402 -0.112021,1.56802 -0.336,2.352 -0.19602,0.756018 -0.65802,1.358018 -1.386,1.806 l 0,-0.294 c -1.9e-5,-0.335982 0.05598,-0.643982 0.168,-0.924 0.11198,-0.279981 0.23798,-0.545981 0.378,-0.798 0.16798,-0.279981 0.30798,-0.55998 0.42,-0.84 0.11198,-0.30798 0.16798,-0.657979 0.168,-1.05 m -1.134,-1.638 c 0.08398,0.112023 0.139981,0.322022 0.168,0.63 0.02798,0.308022 0.04198,0.644021 0.042,1.008 -1.9e-5,0.392021 -0.01402,0.74202 -0.042,1.05 -0.02802,0.28002 -0.08402,0.490019 -0.168,0.63 -0.112019,0.112019 -0.196019,-0.01398 -0.252,-0.378 -0.02802,-0.39198 -0.04202,-0.825979 -0.042,-1.302 -1.9e-5,-0.223979 -1.9e-5,-0.447979 0,-0.672 0.02798,-0.223978 0.04198,-0.419978 0.042,-0.588 0.02798,-0.167978 0.05598,-0.279977 0.084,-0.336 0.05598,-0.08398 0.111981,-0.09798 0.168,-0.042 m -9.45,-4.998 c 0.30799,2.8e-5 0.46199,0.182027 0.462,0.546 -10e-6,0.364027 -0.15401,0.546027 -0.462,0.546 -0.308009,2.7e-5 -0.462009,-0.181973 -0.462,-0.546 -9e-6,-0.363973 0.153991,-0.545972 0.462,-0.546" />
          <path
             id="path2970"
             style="font-size:42px"
             d="m 55.484166,90.879232 11.088,0.546 0.588,-0.546 c -0.196012,-0.363999 -0.448012,-0.601999 -0.756,-0.714 -0.308012,-0.111999 -0.616011,-0.209999 -0.924,-0.294 -0.308011,-0.111998 -0.57401,-0.251998 -0.798,-0.42 -0.22401,-0.167998 -0.33601,-0.503998 -0.336,-1.008 -1e-5,-1.203996 0.23799,-2.407995 0.714,-3.612 0.475989,-1.231992 0.979988,-2.365991 1.512,-3.402 0.223988,-0.02799 0.615987,-0.06999 1.176,-0.126 0.587986,-0.08399 1.203986,-0.15399 1.848,-0.21 0.671984,-0.05599 1.301984,-0.09799 1.89,-0.126 0.587982,-0.05599 0.993982,-0.08399 1.218,-0.084 l 0.252,0 c 0.923981,10e-6 1.72198,0.26601 2.394,0.798 0.671979,0.532009 1.217978,1.204008 1.638,2.016 0.447977,0.812007 0.769977,1.694006 0.966,2.646 0.223976,0.924004 0.335976,1.792003 0.336,2.604 -2.4e-5,0.392002 -0.112024,0.686002 -0.336,0.882 -0.196023,0.196001 -0.420023,0.364001 -0.672,0.504 -0.224023,0.140001 -0.448022,0.294001 -0.672,0.462 -0.196022,0.14 -0.294022,0.35 -0.294,0.63 l 9.408,0 c -3.1e-5,-0.084 -0.196031,-0.252 -0.588,-0.504 -0.36403,-0.251999 -0.79803,-0.559999 -1.302,-0.924 -0.476029,-0.363998 -0.938028,-0.755998 -1.386,-1.176 -0.448027,-0.419997 -0.742027,-0.839997 -0.882,-1.26 l -3.906,-10.542 c -0.112023,-0.279985 -0.336023,-0.853985 -0.672,-1.722 -0.308022,-0.867983 -0.672022,-1.847982 -1.092,-2.94 -0.420021,-1.11998 -0.86802,-2.281979 -1.344,-3.486 -0.44802,-1.231976 -0.868019,-2.351975 -1.26,-3.36 -0.392018,-1.035973 -0.728018,-1.875972 -1.008,-2.52 -0.252018,-0.671971 -0.392017,-1.007971 -0.42,-1.008 -0.02802,2.9e-5 -0.08402,0.01403 -0.168,0.042 -0.08402,2.9e-5 -0.126017,2.9e-5 -0.126,0 -0.02802,0.05603 -0.112017,0.224029 -0.252,0.504 -0.112017,0.280029 -0.210017,0.490028 -0.294,0.63 -1.792015,4.116024 -3.458013,8.19002 -4.998,12.222 -1.54001,4.004012 -3.206008,8.064008 -4.998,12.18 -0.392006,0.700003 -0.882006,1.204003 -1.47,1.512 -0.588004,0.308002 -1.162004,0.546002 -1.722,0.714 -0.560003,0.140001 -1.064002,0.280001 -1.512,0.42 -0.448001,0.112001 -0.728001,0.336001 -0.84,0.672 m 6.678,-1.134 c 0.307992,2e-6 0.461992,0.196001 0.462,0.588 -8e-6,0.364001 -0.154008,0.546 -0.462,0.546 -0.308007,0 -0.462007,-0.181999 -0.462,-0.546 -7e-6,-0.391999 0.153993,-0.587998 0.462,-0.588 m 17.136,-0.798 c -2.5e-5,-0.111997 -2.5e-5,-0.251997 0,-0.42 0.02798,-0.195997 0.04198,-0.335997 0.042,-0.42 l 1.092,2.226 c -0.02803,1e-6 -0.07003,0.014 -0.126,0.042 -0.05603,10e-7 -0.09803,10e-7 -0.126,0 -0.420025,10e-7 -0.672025,-0.153999 -0.756,-0.462 -0.08402,-0.335998 -0.126025,-0.657998 -0.126,-0.966 m -17.136,-1.386 0,0.252 c -8e-6,0.392003 -0.112008,0.770003 -0.336,1.134 -0.224007,0.364002 -0.490007,0.630002 -0.798,0.798 -6e-6,-0.028 -0.01401,-0.07 -0.042,-0.126 -6e-6,-0.056 -6e-6,-0.098 0,-0.126 -6e-6,-0.028 -6e-6,-0.084 0,-0.168 0.02799,-0.084 0.04199,-0.125998 0.042,-0.126 0.111993,-0.139998 0.293993,-0.419997 0.546,-0.84 0.251993,-0.419997 0.447993,-0.685996 0.588,-0.798 m 0.546,1.638 0.546,0 0,0.546 -0.546,-0.546 m 18.312,-0.546 c 0.167973,0.056 0.251973,0.154003 0.252,0.294 -2.7e-5,0.112002 -0.09803,0.210002 -0.294,0.294 -0.168026,0.056 -0.252026,-0.042 -0.252,-0.294 -2.6e-5,-0.223997 0.09797,-0.321997 0.294,-0.294 m -17.766,-1.092 c 0.307991,4e-6 0.461991,0.182004 0.462,0.546 -9e-6,0.364003 -0.154009,0.546003 -0.462,0.546 -0.308008,3e-6 -0.462008,-0.181997 -0.462,-0.546 -8e-6,-0.363996 0.153992,-0.545996 0.462,-0.546 m 16.086,-1.134 c -0.140025,-0.084 -0.350024,-0.056 -0.63,0.084 -0.280024,0.140005 -0.434024,0.294005 -0.462,0.462 l 1.092,-2.184 c 0.391975,0.532006 0.671975,0.994006 0.84,1.386 0.195974,0.364005 0.293974,0.826004 0.294,1.386 -2.6e-5,0.084 -0.01403,0.196004 -0.042,0.336 -2.6e-5,0.112003 -2.6e-5,0.182003 0,0.21 -2.6e-5,-0.195997 -0.140026,-0.489996 -0.42,-0.882 -0.252025,-0.419995 -0.476025,-0.685995 -0.672,-0.798 m -15.54,-2.772 0,0.294 0,0.252 c -0.05601,0.112007 -0.140009,0.280007 -0.252,0.504 -0.08401,0.196006 -0.182009,0.406006 -0.294,0.63 -0.112009,0.196006 -0.224009,0.406006 -0.336,0.63 -0.112008,0.196005 -0.182008,0.350005 -0.21,0.462 l 0,-0.252 0,-0.294 c 0.02799,-0.111994 0.08399,-0.265994 0.168,-0.462 0.111992,-0.223994 0.223991,-0.447994 0.336,-0.672 0.111991,-0.223993 0.223991,-0.433993 0.336,-0.63 0.111991,-0.223993 0.195991,-0.377992 0.252,-0.462 m 13.818,0.546 c -2.3e-5,-0.08399 -2.3e-5,-0.181993 0,-0.294 0.02798,-0.139992 0.04198,-0.223992 0.042,-0.252 0.251977,0.308007 0.419976,0.588007 0.504,0.84 0.08398,0.224007 0.125976,0.504006 0.126,0.84 -2.4e-5,0.08401 -0.01402,0.196006 -0.042,0.336 -2.4e-5,0.112006 -2.4e-5,0.182006 0,0.21 -0.280023,-0.307994 -0.462023,-0.573994 -0.546,-0.798 -0.05602,-0.251993 -0.08402,-0.545993 -0.084,-0.882 m 1.176,-1.092 c 0.167976,0.05601 0.251975,0.154008 0.252,0.294 -2.5e-5,0.140008 -0.09802,0.238008 -0.294,0.294 -0.168024,0.02801 -0.252024,-0.06999 -0.252,-0.294 -2.4e-5,-0.223992 0.09798,-0.321992 0.294,-0.294 m -1.68,-0.546 c 0.195977,0.02801 0.293977,0.112009 0.294,0.252 -2.3e-5,0.140008 -0.09802,0.238008 -0.294,0.294 -0.168022,0.02801 -0.252022,-0.06999 -0.252,-0.294 -2.2e-5,-0.195991 0.08398,-0.279991 0.252,-0.252 m 1.134,-1.134 c 0.167976,0.05601 0.251976,0.25201 0.252,0.588 -2.4e-5,0.140009 -0.02802,0.266009 -0.084,0.378 -0.02802,0.08401 -0.08402,0.140009 -0.168,0.168 -0.112024,0.02801 -0.196024,-0.01399 -0.252,-0.126 -0.02802,-0.139991 -0.04202,-0.279991 -0.042,-0.42 -2.3e-5,-0.139991 0.01398,-0.27999 0.042,-0.42 0.05598,-0.13999 0.139976,-0.19599 0.252,-0.168 m -13.314,-1.092 c 0.307989,1.1e-5 0.461989,0.182011 0.462,0.546 -1.1e-5,0.36401 -0.154011,0.54601 -0.462,0.546 -0.30801,1e-5 -0.46201,-0.18199 -0.462,-0.546 -1e-5,-0.363989 0.15399,-0.545989 0.462,-0.546 m 11.634,0 c 0.307978,1.1e-5 0.461977,0.182011 0.462,0.546 -2.3e-5,0.36401 -0.154022,0.54601 -0.462,0.546 -0.308022,1e-5 -0.462022,-0.18199 -0.462,-0.546 -2.2e-5,-0.363989 0.153978,-0.545989 0.462,-0.546 m 0.504,-1.092 c -2.3e-5,-0.111988 -2.3e-5,-0.223988 0,-0.336 0.02798,-0.111987 0.04198,-0.195987 0.042,-0.252 0.251977,0.308012 0.405977,0.588012 0.462,0.84 0.08398,0.252012 0.125977,0.532011 0.126,0.84 -2.3e-5,0.08401 -0.01402,0.196011 -0.042,0.336 -2.3e-5,0.112011 -2.3e-5,0.182011 0,0.21 -0.252023,-0.307989 -0.420023,-0.573989 -0.504,-0.798 -0.05602,-0.251988 -0.08402,-0.531988 -0.084,-0.84 m -11.592,0 c 0.307989,1.2e-5 0.461989,0.182012 0.462,0.546 -1.1e-5,0.364011 -0.154011,0.546011 -0.462,0.546 -0.308011,1.1e-5 -0.46201,-0.181989 -0.462,-0.546 -10e-6,-0.363988 0.153989,-0.545988 0.462,-0.546 m 7.77,0 c -0.224018,0.08401 -0.630018,0.154012 -1.218,0.21 -0.560017,0.02801 -1.176016,0.04201 -1.848,0.042 -0.672015,1.2e-5 -1.288014,-0.01399 -1.848,-0.042 -0.560013,-0.05599 -0.952013,-0.125988 -1.176,-0.21 -0.140012,-0.02799 -0.140012,-0.05599 0,-0.084 0.139987,-0.02799 0.363987,-0.05599 0.672,-0.084 0.307986,-0.02799 0.671986,-0.04199 1.092,-0.042 0.419985,-0.02799 0.839985,-0.04199 1.26,-0.042 l 1.68,0 c 0.531982,1.2e-5 0.923982,0.04201 1.176,0.126 0.279981,0.05601 0.349981,0.09801 0.21,0.126 m 1.638,0 c -0.05602,0.168012 -0.14002,0.252012 -0.252,0.252 -0.14002,1.2e-5 -0.23802,-0.08399 -0.294,-0.252 -0.05602,-0.195988 0.04198,-0.293988 0.294,-0.294 0.25198,1.2e-5 0.33598,0.09801 0.252,0.294 m -8.862,-1.134 c 0.307988,1.3e-5 0.461988,0.182013 0.462,0.546 -1.2e-5,0.392012 -0.154012,0.588012 -0.462,0.588 -0.308011,1.2e-5 -0.462011,-0.195988 -0.462,-0.588 -1.1e-5,-0.363987 0.153989,-0.545987 0.462,-0.546 m 4.998,-8.316 c 0.223983,0.140021 0.433983,0.392021 0.63,0.756 0.195983,0.36402 0.363983,0.74202 0.504,1.134 0.167982,0.364019 0.293982,0.700019 0.378,1.008 0.111982,0.280018 0.167982,0.420018 0.168,0.42 0.05598,0.168018 0.153982,0.490018 0.294,0.966 0.167981,0.476017 0.335981,0.980016 0.504,1.512 0.195981,0.532015 0.363981,1.050015 0.504,1.554 0.16798,0.476014 0.27998,0.798013 0.336,0.966 l -6.636,0 c 0.139987,-0.447986 0.321987,-1.021986 0.546,-1.722 0.251986,-0.727984 0.517986,-1.483984 0.798,-2.268 0.307985,-0.783982 0.629985,-1.553981 0.966,-2.31 0.335984,-0.78398 0.671984,-1.455979 1.008,-2.016 m 4.452,7.77 c 0.167979,0.05601 0.251979,0.154014 0.252,0.294 -2.1e-5,0.140013 -0.09802,0.238013 -0.294,0.294 -0.168021,0.02801 -0.252021,-0.06999 -0.252,-0.294 -2.1e-5,-0.223986 0.09798,-0.321986 0.294,-0.294 m 1.092,-0.546 c 0.195978,0.05601 0.293978,0.140014 0.294,0.252 -2.2e-5,0.140014 -0.09802,0.238014 -0.294,0.294 -0.196022,0.02801 -0.294022,-0.06999 -0.294,-0.294 -2.2e-5,-0.223986 0.09798,-0.307986 0.294,-0.252 m -1.68,-0.546 c 0.195979,0.02802 0.293979,0.112015 0.294,0.252 -2.1e-5,0.140014 -0.09802,0.238014 -0.294,0.294 -0.16802,0.02801 -0.25202,-0.06999 -0.252,-0.294 -2e-5,-0.251985 0.08398,-0.335985 0.252,-0.252 m 1.134,-1.134 c 0.167978,0.05602 0.251978,0.154016 0.252,0.294 -2.2e-5,0.140016 -0.09802,0.238015 -0.294,0.294 -0.168021,0.02801 -0.252021,-0.06998 -0.252,-0.294 -2.1e-5,-0.223984 0.09798,-0.321984 0.294,-0.294 m -8.862,-0.546 c 0.307987,1.7e-5 0.461987,0.182016 0.462,0.546 -1.3e-5,0.364016 -0.154013,0.546015 -0.462,0.546 -0.308012,1.5e-5 -0.462012,-0.181984 -0.462,-0.546 -1.2e-5,-0.363984 0.153988,-0.545983 0.462,-0.546 m 7.182,0 c 0.19598,0.02802 0.29398,0.126016 0.294,0.294 -2e-5,0.140016 -0.09802,0.238016 -0.294,0.294 -0.16802,0.02802 -0.25202,-0.06998 -0.252,-0.294 -2e-5,-0.223984 0.08398,-0.321983 0.252,-0.294 m -0.042,-2.772 c -2e-5,-0.08398 -2e-5,-0.18198 0,-0.294 0.02798,-0.13998 0.04198,-0.22398 0.042,-0.252 0.39198,0.532019 0.68598,0.994019 0.882,1.386 0.195979,0.364018 0.293979,0.826018 0.294,1.386 -2.1e-5,0.08402 -0.01402,0.196017 -0.042,0.336 -2.1e-5,0.112017 -2.1e-5,0.182017 0,0.21 -0.392021,-0.531983 -0.68602,-0.993982 -0.882,-1.386 -0.19602,-0.391982 -0.29402,-0.853981 -0.294,-1.386 m -6.594,1.68 c 0.307987,1.8e-5 0.461986,0.182017 0.462,0.546 -1.4e-5,0.364017 -0.154013,0.546017 -0.462,0.546 -0.308013,1.7e-5 -0.462013,-0.181983 -0.462,-0.546 -1.3e-5,-0.363983 0.153987,-0.545982 0.462,-0.546 m 6.09,-0.588 c 0.30798,1.8e-5 0.46198,0.196018 0.462,0.588 -2e-5,0.364017 -0.15402,0.546017 -0.462,0.546 -0.308019,1.7e-5 -0.462019,-0.181983 -0.462,-0.546 -1.9e-5,-0.391982 0.153981,-0.587982 0.462,-0.588 m -0.546,-1.638 c 0.167981,0.05602 0.251981,0.14002 0.252,0.252 -1.9e-5,0.140019 -0.09802,0.238019 -0.294,0.294 -0.168019,0.05602 -0.252018,-0.04198 -0.252,-0.294 -1.8e-5,-0.19598 0.09798,-0.27998 0.294,-0.252 m -0.546,-1.134 c 0.167982,0.05602 0.251982,0.154021 0.252,0.294 -1.8e-5,0.112021 -0.09802,0.210021 -0.294,0.294 -0.168018,0.05602 -0.252018,-0.04198 -0.252,-0.294 -1.8e-5,-0.223979 0.09798,-0.321979 0.294,-0.294 m 1.092,-0.546 c 0.195981,0.05602 0.29398,0.154021 0.294,0.294 -2e-5,0.112021 -0.09802,0.210021 -0.294,0.294 -0.196019,0.05602 -0.294019,-0.04198 -0.294,-0.294 -1.9e-5,-0.251978 0.09798,-0.349978 0.294,-0.294 m -1.68,-1.092 c 0.195982,0.02802 0.293982,0.112023 0.294,0.252 -1.8e-5,0.140022 -0.09802,0.252022 -0.294,0.336 -0.168017,0.05602 -0.252017,-0.05598 -0.252,-0.336 -1.7e-5,-0.195977 0.08398,-0.279977 0.252,-0.252 m 0.588,-1.386 0,-0.294 c 0.307982,0.112024 0.475981,0.308024 0.504,0.588 0.05598,0.280023 0.08398,0.546023 0.084,0.798 -1.9e-5,0.112023 -0.01402,0.266023 -0.042,0.462 -1.9e-5,0.168022 -1.9e-5,0.294022 0,0.378 -0.05602,-0.05598 -0.112019,-0.153978 -0.168,-0.294 -0.05602,-0.167977 -0.112018,-0.335977 -0.168,-0.504 -0.05602,-0.195977 -0.112018,-0.363977 -0.168,-0.504 -0.02802,-0.167976 -0.04202,-0.293976 -0.042,-0.378 l 0,-0.252 m -0.588,-2.52 c 0.195982,0.196026 0.293982,0.476026 0.294,0.84 -1.8e-5,0.392025 -0.09802,0.672025 -0.294,0.84 -0.08402,0.08402 -0.154017,0.02802 -0.21,-0.168 -0.02802,-0.195975 -0.04202,-0.419975 -0.042,-0.672 -1.7e-5,-0.251974 0.01398,-0.475974 0.042,-0.672 0.05598,-0.195973 0.125982,-0.251973 0.21,-0.168 m -1.092,0.588 c 0.307983,2.6e-5 0.461983,0.182026 0.462,0.546 -1.7e-5,0.364025 -0.154017,0.546025 -0.462,0.546 -0.308016,2.5e-5 -0.462016,-0.181975 -0.462,-0.546 -1.6e-5,-0.363974 0.153984,-0.545974 0.462,-0.546" />
          <path
             id="path2972"
             style="font-size:42px"
             d="m 93.630666,75.087232 0,2.394 c -6e-6,0.980013 -0.01401,1.960012 -0.042,2.94 -6e-6,0.95201 -6e-6,1.820009 0,2.604 l 0,1.176 c -0.02801,1.288006 -0.154006,2.338005 -0.378,3.15 -0.224006,0.784003 -0.490005,1.414003 -0.798,1.89 -0.308005,0.448002 -0.644004,0.770001 -1.008,0.966 -0.336004,0.196001 -0.658003,0.350001 -0.966,0.462 -0.280003,0.112001 -0.518003,0.21 -0.714,0.294 -0.196002,0.084 -0.294002,0.238 -0.294,0.462 l 10.248,0 0,-0.546 c -0.980011,-0.419999 -1.708011,-0.867999 -2.184,-1.344 -0.44801,-0.503998 -0.770009,-1.063997 -0.966,-1.68 -0.168009,-0.615996 -0.252009,-1.315995 -0.252,-2.1 0.02799,-0.783994 0.04199,-1.679993 0.042,-2.688 l 0,-3.276 c -9e-6,-0.755988 -9e-6,-1.483987 0,-2.184 0.02799,-0.699986 0.05599,-1.413985 0.084,-2.142 0.05599,-0.755983 0.125991,-1.539983 0.21,-2.352 0.08399,-0.839981 0.181991,-1.76398 0.294,-2.772 l 4.452004,4.452 c -2e-5,-0.02798 -2e-5,-0.06998 0,-0.126 0.028,-0.08398 0.042,-0.139983 0.042,-0.168 -2e-5,-0.279983 -0.098,-0.559983 -0.294,-0.84 -0.19602,-0.307982 -0.42002,-0.601982 -0.672,-0.882 -0.25202,-0.307981 -0.504017,-0.601981 -0.756004,-0.882 -0.252012,-0.30798 -0.434012,-0.62998 -0.546,-0.966 l 1.092004,-0.588 0,1.68 1.134,-0.546 0,1.092 1.638,0 0,-0.546 c -2e-5,1.9e-5 -0.25202,-0.32198 -0.756,-0.966 -0.50402,-0.643979 -1.12002,-1.399978 -1.848,-2.268 -0.700016,-0.895977 -1.428016,-1.805976 -2.184004,-2.73 -0.75601,-0.951974 -1.372009,-1.735973 -1.848,-2.352 -0.140009,-0.195972 -0.350009,-0.419972 -0.63,-0.672 -0.280008,-0.279971 -0.448008,-0.419971 -0.504,-0.42 l -6.342,0 c -2e-6,0.05603 0.223998,0.238029 0.672,0.546 0.447997,0.280028 0.951997,0.616028 1.512,1.008 0.559996,0.364027 1.091995,0.728026 1.596,1.092 0.503994,0.336026 0.811994,0.560026 0.924,0.672 l 0,1.848 c -6e-6,0.868023 -6e-6,1.792022 0,2.772 0.02799,0.95202 0.04199,1.876019 0.042,2.772 l 0,1.764 m 19.362004,12.474 c -0.11203,0.252004 -0.15403,0.602003 -0.126,1.05 0.056,0.420002 0.15397,0.840002 0.294,1.26 0.16797,0.420001 0.37797,0.784001 0.63,1.092 0.25197,0.308 0.53197,0.462 0.84,0.462 l 0.588,0 c 0.084,-2.211998 0.15397,-4.395996 0.21,-6.552 0.056,-2.183991 0.11197,-4.339989 0.168,-6.468 0.084,-2.155985 0.16797,-4.311983 0.252,-6.468 0.11197,-2.155978 0.26597,-4.339976 0.462,-6.552 0.16797,-0.503974 0.34997,-0.881973 0.546,-1.134 0.22397,-0.279973 0.48997,-0.489972 0.798,-0.63 0.33597,-0.167972 0.69996,-0.265972 1.092,-0.294 0.41996,-0.05597 0.89596,-0.111972 1.428,-0.168 l 0,-0.546 -11.088,0 0,0.546 c 0.75597,0.05603 1.39997,0.126028 1.932,0.21 0.55997,0.05603 1.02197,0.196028 1.386,0.42 0.39197,0.224027 0.67197,0.574027 0.84,1.05 0.19597,0.448026 0.29397,1.078025 0.294,1.89 l 0,0.294 c -3e-5,0.448024 -0.014,1.120023 -0.042,2.016 -3e-5,0.896021 -0.014,1.91802 -0.042,3.066 -0.028,1.120018 -0.07,2.310017 -0.126,3.57 -0.028,1.232014 -0.07,2.408013 -0.126,3.528 -0.028,1.120011 -0.07,2.12801 -0.126,3.024 -0.028,0.896008 -0.056,1.554008 -0.084,1.974 -0.11203,-0.111993 -0.29403,-0.293993 -0.546,-0.546 -0.25203,-0.279992 -0.44803,-0.461992 -0.588,-0.546 -3e-5,8e-6 -0.042,8e-6 -0.126,0 -0.056,-0.02799 -0.098,-0.04199 -0.126,-0.042 -0.028,8e-6 -0.084,0.01401 -0.168,0.042 -0.084,8e-6 -0.12603,8e-6 -0.126,0 -0.11203,0.08401 -0.30803,0.266008 -0.588,0.546 -0.25203,0.252007 -0.42003,0.434007 -0.504,0.546 0.084,-0.111993 0.18197,-0.377992 0.294,-0.798 0.13997,-0.419992 0.22397,-0.699991 0.252,-0.84 l 0,-0.294 0,-0.252 c -0.028,-0.111991 -0.11203,-0.29399 -0.252,-0.546 -0.11203,-0.27999 -0.21003,-0.47599 -0.294,-0.588 -0.14003,-0.223989 -0.33603,-0.489989 -0.588,-0.798 -0.22403,-0.307988 -0.46203,-0.601988 -0.714,-0.882 -0.25203,-0.307988 -0.47603,-0.559987 -0.672,-0.756 -0.16802,-0.223987 -0.25202,-0.335987 -0.252,-0.336 l -0.546,0 0,1.134 c -0.056,-0.05599 -0.16802,-0.139988 -0.336,-0.252 -0.14002,-0.111988 -0.30802,-0.223987 -0.504,-0.336 -0.16802,-0.111987 -0.33602,-0.209987 -0.504,-0.294 -0.14002,-0.111987 -0.25202,-0.195987 -0.336,-0.252 l -0.546,0 c -0.084,-0.02799 -0.19602,-0.111987 -0.336,-0.252 -0.14002,-0.167986 -0.21002,-0.265986 -0.21,-0.294 -2e-5,-0.111986 0.07,-0.293986 0.21,-0.546 0.13998,-0.279985 0.25198,-0.461985 0.336,-0.546 l 1.68,1.092 c -2e-5,-0.02799 -2e-5,-0.06999 0,-0.126 0.028,-0.05599 0.042,-0.111986 0.042,-0.168 -2e-5,1.4e-5 -0.12602,-0.195986 -0.378,-0.588 -0.25202,-0.419985 -0.54602,-0.881984 -0.882,-1.386 -0.30802,-0.503983 -0.61602,-0.979983 -0.924,-1.428 -0.30802,-0.447982 -0.51802,-0.699982 -0.63,-0.756 -0.11202,-0.02798 -0.30802,0.05602 -0.588,0.252 -0.25202,0.168018 -0.43402,0.280018 -0.546,0.336 -0.028,1.8e-5 -0.12602,0.01402 -0.294,0.042 -0.14002,0.02802 -0.22402,0.04202 -0.252,0.042 l 0,1.008 1.092,-0.546 c -0.028,0.02802 -0.042,0.112017 -0.042,0.252 -0.084,0.140017 -0.028,0.280017 0.168,0.42 0.19598,0.140016 0.34998,0.280016 0.462,0.42 -2e-5,0.140016 -0.07,0.336016 -0.21,0.588 -0.14002,0.252015 -0.26602,0.434015 -0.378,0.546 l -1.092,-0.588 c -2e-5,0.02801 -0.014,0.08401 -0.042,0.168 -2e-5,0.05602 -2e-5,0.09802 0,0.126 -2e-5,0.02801 -2e-5,0.08402 0,0.168 0.028,0.08401 0.042,0.126015 0.042,0.126 0.13998,0.224015 0.32198,0.490014 0.546,0.798 0.25198,0.308014 0.48998,0.616013 0.714,0.924 0.22398,0.280013 0.41998,0.532013 0.588,0.756 0.19598,0.196012 0.32198,0.294012 0.378,0.294 l 1.176,0 0,0.798 c -2e-5,0.420011 0.084,0.86801 0.252,1.344 0.16798,0.44801 0.51798,0.672009 1.05,0.672 0.028,9e-6 0.084,9e-6 0.168,0 0.084,-0.02799 0.12598,-0.04199 0.126,-0.042 0.084,-0.05599 0.18198,-0.139991 0.294,-0.252 0.13998,-0.11199 0.22398,-0.22399 0.252,-0.336 -0.084,1e-5 -0.19602,-0.05599 -0.336,-0.168 -0.14002,-0.13999 -0.21002,-0.26599 -0.21,-0.378 -2e-5,-0.111989 0.07,-0.293989 0.21,-0.546 0.13998,-0.279989 0.25198,-0.461989 0.336,-0.546 0.13998,0.08401 0.33598,0.266011 0.588,0.546 0.25197,0.252011 0.41997,0.434011 0.504,0.546 l 0,0.294 c -3e-5,0.30801 -0.084,0.65801 -0.252,1.05 -0.14003,0.364009 -0.42003,0.546009 -0.84,0.546 l 0,0.336 3.864,4.998 c -3e-5,3e-6 0.028,0.014 0.084,0.042 0.056,3e-6 0.12597,3e-6 0.21,0 0.028,3e-6 0.084,3e-6 0.168,0 0.084,-0.028 0.12597,-0.042 0.126,-0.042 0.084,-0.028 0.18197,-0.098 0.294,-0.21 0.13997,-0.139996 0.22397,-0.251996 0.252,-0.336 m -18.312004,2.184 c 0.307992,2e-6 0.461992,0.196001 0.462,0.588 -8e-6,0.364001 -0.154008,0.546 -0.462,0.546 -0.308007,0 -0.462007,-0.181999 -0.462,-0.546 -7e-6,-0.391999 0.153993,-0.587998 0.462,-0.588 m -0.546,-1.638 c -7e-6,0.028 -7e-6,0.112003 0,0.252 0.02799,0.112003 0.04199,0.210003 0.042,0.294 -7e-6,0.224002 -0.02801,0.434002 -0.084,0.63 -0.02801,0.196002 -0.196007,0.350002 -0.504,0.462 l 0.546,-1.638 m 1.05,0 c -8e-6,-0.111997 -8e-6,-0.293996 0,-0.546 0.02799,-0.279996 0.04199,-0.475996 0.042,-0.588 0.05599,0.084 0.111992,0.238004 0.168,0.462 0.05599,0.196004 0.111992,0.420004 0.168,0.672 0.08399,0.224003 0.139992,0.448003 0.168,0.672 0.05599,0.196002 0.08399,0.336002 0.084,0.42 l 0,0.294 0,0.252 c -0.196008,-0.028 -0.350008,-0.111998 -0.462,-0.252 -0.08401,-0.167998 -0.140008,-0.335998 -0.168,-0.504 -0.02801,-0.167997 -0.04201,-0.335997 -0.042,-0.504 0.02799,-0.167997 0.04199,-0.293997 0.042,-0.378 m 19.446004,1.092 c -0.028,0.196002 -0.11203,0.294002 -0.252,0.294 -0.14003,2e-6 -0.23803,-0.084 -0.294,-0.252 -0.056,-0.195998 0.042,-0.293998 0.294,-0.294 0.19597,2e-6 0.27997,0.084 0.252,0.252 m -1.092,-1.092 c 0.30797,3e-6 0.46197,0.182003 0.462,0.546 -3e-5,0.364002 -0.15403,0.546002 -0.462,0.546 -0.30803,2e-6 -0.46203,-0.181998 -0.462,-0.546 -3e-5,-0.363997 0.15397,-0.545997 0.462,-0.546 m -0.546,-1.68 c 0.084,0.196005 0.056,0.364005 -0.084,0.504 -0.14003,0.140004 -0.29403,0.154004 -0.462,0.042 -0.084,-0.028 -0.11203,-0.084 -0.084,-0.168 0.028,-0.111995 0.07,-0.209995 0.126,-0.294 0.084,-0.084 0.16797,-0.139995 0.252,-0.168 0.11197,-0.028 0.19597,5e-6 0.252,0.084 m -1.134,-0.546 c 0.30797,5e-6 0.46197,0.182005 0.462,0.546 -3e-5,0.364005 -0.15403,0.546004 -0.462,0.546 -0.30803,4e-6 -0.46203,-0.181995 -0.462,-0.546 -3e-5,-0.363995 0.15397,-0.545995 0.462,-0.546 m 2.226,-3.864 c 0.11197,0.168009 0.18197,0.462009 0.21,0.882 0.028,0.392008 0.042,0.826008 0.042,1.302 -3e-5,0.476007 -0.014,0.938006 -0.042,1.386 -0.028,0.420005 -0.098,0.700005 -0.21,0.84 -0.084,0.196005 -0.15403,0.04201 -0.21,-0.462 -0.028,-0.531994 -0.042,-1.119993 -0.042,-1.764 -3e-5,-0.643992 0.014,-1.203992 0.042,-1.68 0.056,-0.475991 0.12597,-0.643991 0.21,-0.504 m -2.226,2.772 0.588,0.546 -1.134,0.546 0.546,-1.092 m -16.632004,-0.588 c 0.195992,0.08401 0.293992,0.280007 0.294,0.588 -8e-6,0.140006 -0.02801,0.266006 -0.084,0.378 -0.02801,0.08401 -0.09801,0.140006 -0.21,0.168 -0.08401,0.02801 -0.154008,-0.01399 -0.21,-0.126 -0.02801,-0.139994 -0.04201,-0.279994 -0.042,-0.42 -8e-6,-0.139993 0.01399,-0.279993 0.042,-0.42 0.05599,-0.139993 0.125992,-0.195993 0.21,-0.168 m 16.086004,-0.546 c 0.30797,8e-6 0.46197,0.182008 0.462,0.546 -3e-5,0.392007 -0.15403,0.588007 -0.462,0.588 -0.30803,7e-6 -0.46203,-0.195993 -0.462,-0.588 -3e-5,-0.363992 0.15397,-0.545992 0.462,-0.546 m -1.638,-0.546 c 0.30797,8e-6 0.46197,0.182008 0.462,0.546 -3e-5,0.364007 -0.15403,0.546007 -0.462,0.546 -0.30803,7e-6 -0.46203,-0.181993 -0.462,-0.546 -3e-5,-0.363992 0.15397,-0.545992 0.462,-0.546 m -14.448004,-0.546 c 0.195992,0.02801 0.293992,0.112009 0.294,0.252 -8e-6,0.140008 -0.09801,0.238008 -0.294,0.294 -0.168008,0.02801 -0.252008,-0.06999 -0.252,-0.294 -8e-6,-0.195991 0.08399,-0.279991 0.252,-0.252 m 13.860004,0 c 0.30797,9e-6 0.46197,0.182009 0.462,0.546 -3e-5,0.364008 -0.15403,0.546008 -0.462,0.546 -0.30803,8e-6 -0.46203,-0.181992 -0.462,-0.546 -3e-5,-0.363991 0.15397,-0.545991 0.462,-0.546 m 1.134,-0.546 c 0.30797,9e-6 0.46197,0.182009 0.462,0.546 -3e-5,0.364008 -0.15403,0.546008 -0.462,0.546 -0.30803,8e-6 -0.46203,-0.181992 -0.462,-0.546 -3e-5,-0.363991 0.15397,-0.545991 0.462,-0.546 m -0.546,-0.588 c 0.30797,1e-5 0.46197,0.19601 0.462,0.588 -3e-5,0.364009 -0.15403,0.546009 -0.462,0.546 -0.30803,9e-6 -0.46203,-0.181991 -0.462,-0.546 -3e-5,-0.39199 0.15397,-0.58799 0.462,-0.588 m -1.134,-0.546 c -0.30802,10e-6 -0.46202,0.18201 -0.462,0.546 -2e-5,0.39201 0.15398,0.588009 0.462,0.588 0.30797,9e-6 0.46197,-0.19599 0.462,-0.588 -3e-5,-0.36399 -0.15403,-0.54599 -0.462,-0.546 m -13.314004,-1.092 c 0.307992,1.2e-5 0.461992,0.182011 0.462,0.546 -8e-6,0.364011 -0.154008,0.54601 -0.462,0.546 -0.308008,10e-6 -0.462007,-0.181989 -0.462,-0.546 -7e-6,-0.363989 0.153992,-0.545988 0.462,-0.546 m 11.676004,0 c 0.30798,1.2e-5 0.46198,0.182011 0.462,0.546 -2e-5,0.364011 -0.15402,0.54601 -0.462,0.546 -0.30802,10e-6 -0.46202,-0.181989 -0.462,-0.546 -2e-5,-0.363989 0.15398,-0.545988 0.462,-0.546 m -0.588,-0.546 c 0.30798,1.2e-5 0.46198,0.182012 0.462,0.546 -2e-5,0.364011 -0.15402,0.546011 -0.462,0.546 -0.30802,1.1e-5 -0.46202,-0.181989 -0.462,-0.546 -2e-5,-0.363988 0.15398,-0.545988 0.462,-0.546 m -11.088004,-0.588 c 0.195992,0.08401 0.293992,0.182013 0.294,0.294 -8e-6,0.140012 -0.09801,0.238012 -0.294,0.294 -0.168008,0.02801 -0.252008,-0.06999 -0.252,-0.294 -8e-6,-0.223987 0.08399,-0.321987 0.252,-0.294 m 8.904004,-2.184 c 0.30798,1.5e-5 0.46198,0.182015 0.462,0.546 -2e-5,0.364014 -0.15402,0.546014 -0.462,0.546 -0.30802,1.4e-5 -0.46202,-0.181986 -0.462,-0.546 -2e-5,-0.363985 0.15398,-0.545985 0.462,-0.546 m 0.546,-1.134 c 0.30798,1.6e-5 0.46198,0.182016 0.462,0.546 -2e-5,0.392015 -0.15402,0.588015 -0.462,0.588 -0.30802,1.5e-5 -0.46202,-0.195985 -0.462,-0.588 -2e-5,-0.363984 0.15398,-0.545984 0.462,-0.546 m -2.772,-0.546 c -0.30802,1.7e-5 -0.46202,0.182016 -0.462,0.546 -2e-5,0.364016 0.15398,0.546015 0.462,0.546 0.30798,1.5e-5 0.46198,-0.181984 0.462,-0.546 -2e-5,-0.363984 -0.15402,-0.545983 -0.462,-0.546 m 0,-2.226 c -0.30802,1.9e-5 -0.46202,0.182019 -0.462,0.546 -2e-5,0.392018 0.15398,0.588018 0.462,0.588 0.30798,1.8e-5 0.46198,-0.195982 0.462,-0.588 -2e-5,-0.363981 -0.15402,-0.545981 -0.462,-0.546 m -1.134,-2.226 c 0.30798,2.1e-5 0.46198,0.196021 0.462,0.588 -2e-5,0.36402 -0.15402,0.54602 -0.462,0.546 -0.30802,2e-5 -0.46202,-0.18198 -0.462,-0.546 -2e-5,-0.391979 0.15398,-0.587979 0.462,-0.588 m -2.184004,-0.546 c 0.307988,2.2e-5 0.461988,0.182021 0.462,0.546 -1.2e-5,0.392021 -0.154012,0.58802 -0.462,0.588 -0.308011,2e-5 -0.462011,-0.195979 -0.462,-0.588 -1.1e-5,-0.363979 0.153989,-0.545978 0.462,-0.546 m -1.722,-1.386 c -1e-5,-0.02798 -1e-5,-0.06998 0,-0.126 0.02799,-0.05598 0.04199,-0.09798 0.042,-0.126 0.08399,0.08402 0.25199,0.196023 0.504,0.336 0.27999,0.140023 0.475989,0.210023 0.588,0.21 0.139989,2.3e-5 0.335989,-0.06998 0.588,-0.21 0.251989,-0.139977 0.433988,-0.251977 0.546,-0.336 0.08399,0.08402 0.181988,0.266023 0.294,0.546 0.139988,0.280022 0.223988,0.462022 0.252,0.546 l 0,0.294 0,0.252 c -0.08401,-0.08398 -0.266012,-0.195978 -0.546,-0.336 -0.252012,-0.139978 -0.434011,-0.209978 -0.546,-0.21 -0.140011,2.2e-5 -0.336011,0.07002 -0.588,0.21 -0.25201,0.140022 -0.43401,0.252022 -0.546,0.336 l 0.546,0 c -0.112011,-0.08398 -0.30801,-0.251978 -0.588,-0.504 -0.25201,-0.279978 -0.42001,-0.475977 -0.504,-0.588 -1e-5,2.3e-5 -0.01401,-0.04198 -0.042,-0.126 -1e-5,-0.08398 -1e-5,-0.139977 0,-0.168 m -1.05,-0.84 c 0.167991,0.224024 0.251991,0.504023 0.252,0.84 -9e-6,0.392023 -0.08401,0.672022 -0.252,0.84 -0.112008,0.08402 -0.196008,0.02802 -0.252,-0.168 -0.02801,-0.195978 -0.04201,-0.419977 -0.042,-0.672 -8e-6,-0.251977 0.01399,-0.475977 0.042,-0.672 0.05599,-0.195976 0.139992,-0.251976 0.252,-0.168 m -1.134,-2.772 c 0.02799,-0.08397 0.09799,-0.181973 0.21,-0.294 0.139992,-0.139973 0.251992,-0.223973 0.336,-0.252 -8e-6,2.7e-5 0.04199,2.7e-5 0.126,0 0.08399,-0.02797 0.139992,-0.04197 0.168,-0.042 0.02799,2.7e-5 0.06999,0.01403 0.126,0.042 0.08399,2.7e-5 0.139992,2.7e-5 0.168,0 0.08399,0.08403 0.223991,0.266027 0.42,0.546 0.223991,0.252026 0.447991,0.532026 0.672,0.84 0.25199,0.280025 0.47599,0.560025 0.672,0.84 0.22399,0.252025 0.363989,0.434024 0.42,0.546 -1.1e-5,2.4e-5 -1.1e-5,0.04202 0,0.126 0.02799,0.08402 0.04199,0.140024 0.042,0.168 -1.1e-5,0.02802 -0.01401,0.07002 -0.042,0.126 -1.1e-5,0.05602 -1.1e-5,0.09802 0,0.126 -0.112011,-0.08398 -0.30801,-0.223976 -0.588,-0.42 -0.25201,-0.223976 -0.51801,-0.447975 -0.798,-0.672 -0.280009,-0.223975 -0.560009,-0.433975 -0.84,-0.63 -0.252008,-0.223974 -0.434008,-0.377974 -0.546,-0.462 -0.08401,-0.02797 -0.196008,-0.09797 -0.336,-0.21 -0.112007,-0.139974 -0.182007,-0.265974 -0.21,-0.378 m -0.546,-0.546 c 0.307993,2.7e-5 0.461993,0.182027 0.462,0.546 -7e-6,0.392026 -0.154007,0.588026 -0.462,0.588 -0.308006,2.6e-5 -0.462006,-0.195974 -0.462,-0.588 -6e-6,-0.363973 0.153994,-0.545973 0.462,-0.546 m 20.496004,0 c 0.30797,2.7e-5 0.46197,0.182027 0.462,0.546 -3e-5,0.392026 -0.15403,0.588026 -0.462,0.588 -0.30803,2.6e-5 -0.46203,-0.195974 -0.462,-0.588 -3e-5,-0.363973 0.15397,-0.545973 0.462,-0.546 m -0.546,-0.546 c 0.30797,2.8e-5 0.46197,0.182027 0.462,0.546 -3e-5,0.364027 -0.15403,0.546027 -0.462,0.546 -0.30803,2.7e-5 -0.46203,-0.181973 -0.462,-0.546 -3e-5,-0.363973 0.15397,-0.545972 0.462,-0.546 m 1.68,0 c 0.30797,2.8e-5 0.46197,0.182027 0.462,0.546 -3e-5,0.364027 -0.15403,0.546027 -0.462,0.546 -0.30803,2.7e-5 -0.46203,-0.181973 -0.462,-0.546 -3e-5,-0.363973 0.15397,-0.545972 0.462,-0.546 m -21.630004,-0.546 c 0.307993,2.8e-5 0.461993,0.182028 0.462,0.546 -7e-6,0.364027 -0.154007,0.546027 -0.462,0.546 -0.308006,2.7e-5 -0.462006,-0.181973 -0.462,-0.546 -6e-6,-0.363972 0.153994,-0.545972 0.462,-0.546" />
          <path
             id="path2974"
             style="font-size:42px"
             d="m 123.50185,90.879232 c 0.616,-0.056 1.134,-0.111999 1.554,-0.168 0.448,-0.084 0.826,-0.209999 1.134,-0.378 0.308,-0.195999 0.546,-0.461999 0.714,-0.798 0.196,-0.363998 0.35,-0.839997 0.462,-1.428 0.112,-1.371995 0.21,-2.631994 0.294,-3.78 0.084,-1.147992 0.14,-2.225991 0.168,-3.234 0.056,-1.007989 0.084,-1.987988 0.084,-2.94 0.028,-0.979986 0.042,-1.973985 0.042,-2.982 l 0,-4.536 0,-1.218 c 0,-0.643977 -0.014,-1.301977 -0.042,-1.974 0,-0.671975 0,-1.301975 0,-1.89 l 0,-1.302 c -0.112,-0.363973 -0.364,-0.587972 -0.756,-0.672 -0.364,-0.111972 -0.756,-0.167972 -1.176,-0.168 -0.42,2.8e-5 -0.826,-0.02797 -1.218,-0.084 -0.364,-0.08397 -0.602,-0.321972 -0.714,-0.714 l 12.18,0 c -0.11201,0.364028 -0.30801,0.616028 -0.588,0.756 -0.25201,0.140028 -0.53201,0.238028 -0.84,0.294 -0.30801,0.05603 -0.64401,0.09803 -1.008,0.126 -0.33601,2.8e-5 -0.64401,0.07003 -0.924,0.21 -0.28001,0.112027 -0.51801,0.322027 -0.714,0.63 -0.19601,0.280026 -0.30801,0.714026 -0.336,1.302 l -0.588,9.954 c 1.79199,-1.679983 3.61199,-3.457981 5.46,-5.334 1.84799,-1.903977 3.54199,-3.821975 5.082,-5.754 0.028,-0.02797 0.042,-0.09797 0.042,-0.21 0.028,-0.111973 0.042,-0.223973 0.042,-0.336 -2e-5,-0.335973 -0.098,-0.545972 -0.294,-0.63 -0.19602,-0.08397 -0.40602,-0.125972 -0.63,-0.126 -0.22402,-0.02797 -0.43402,-0.06997 -0.63,-0.126 -0.19601,-0.05597 -0.29401,-0.223972 -0.294,-0.504 -1e-5,-0.08397 0.042,-0.167971 0.126,-0.252 0.36398,-0.05597 1.03598,-0.111971 2.016,-0.168 1.00798,-0.08397 2.07198,-0.153971 3.192,-0.21 1.11998,-0.05597 2.18398,-0.09797 3.192,-0.126 1.00798,-0.05597 1.70798,-0.08397 2.1,-0.084 l 0.336,0 0.252,0 c 0.084,0.05603 0.18197,0.140029 0.294,0.252 0.13997,0.112029 0.22397,0.224029 0.252,0.336 -0.19603,0.364028 -0.56003,0.644028 -1.092,0.84 -0.50402,0.168028 -1.06402,0.308028 -1.68,0.42 -0.61602,0.112027 -1.23202,0.238027 -1.848,0.378 -0.61602,0.112027 -1.10602,0.294027 -1.47,0.546 -0.11202,0.08403 -0.30802,0.224026 -0.588,0.42 -0.28002,0.196026 -0.57402,0.420026 -0.882,0.672 -0.28002,0.224025 -0.54602,0.448025 -0.798,0.672 -0.25202,0.224025 -0.42002,0.378024 -0.504,0.462 l -8.904,8.862 -1.092,2.226 c 0.89599,-0.167987 1.45599,-0.713986 1.68,-1.638 0.028,0.08402 0.098,0.266015 0.21,0.546 0.11199,0.280014 0.22399,0.462014 0.336,0.546 l 3.864,3.864 0,1.134 1.134,0 7.728,7.182 c 0.11198,0.112002 0.36398,0.224001 0.756,0.336 0.41998,0.112001 0.72798,0.196001 0.924,0.252 0.11198,0.056 0.34998,0.112001 0.714,0.168 0.39197,0.056 0.79797,0.112001 1.218,0.168 0.41997,0.056 0.81197,0.112001 1.176,0.168 0.36397,0.028 0.61597,0.042 0.756,0.042 l 0,0.546 -8.316,0 c -0.084,0 -0.19602,-0.07 -0.336,-0.21 -0.14002,-0.14 -0.21002,-0.252 -0.21,-0.336 -2e-5,-0.223999 0.12598,-0.517999 0.378,-0.882 0.27998,-0.391998 0.53198,-0.657998 0.756,-0.798 l -1.134,-1.092 c -0.084,0.084 -0.19602,0.266003 -0.336,0.546 -0.14002,0.252002 -0.21002,0.434002 -0.21,0.546 -2e-5,0.112002 0.07,0.238002 0.21,0.378 0.13998,0.112002 0.25198,0.168002 0.336,0.168 l -1.092,0.588 -11.634,-11.676 -0.588,1.68 0.588,8.862 c -1e-5,0.140002 0.12599,0.336002 0.378,0.588 0.27999,0.252001 0.51799,0.434001 0.714,0.546 0.11199,0.056 0.32199,0.112001 0.63,0.168 0.33599,0.056 0.67199,0.112001 1.008,0.168 0.36399,0.056 0.69999,0.112001 1.008,0.168 0.33599,0.028 0.55999,0.042 0.672,0.042 l 0,0.546 -12.726,0 0,-0.546 m 6.09,-1.134 c -0.308,2e-6 -0.462,0.196001 -0.462,0.588 0,0.364001 0.154,0.546 0.462,0.546 0.308,0 0.462,-0.181999 0.462,-0.546 0,-0.391999 -0.154,-0.587998 -0.462,-0.588 m -0.84,-2.184 -0.84,2.184 1.134,-0.546 -0.294,-15.498 0,13.86 m 1.386,1.638 0.546,0.546 0,-25.494 -0.546,0.546 0,24.402 m 16.086,0 c -0.30802,2e-6 -0.46202,0.182002 -0.462,0.546 -2e-5,0.392001 0.15398,0.588001 0.462,0.588 0.30798,1e-6 0.46198,-0.195999 0.462,-0.588 -2e-5,-0.363998 -0.15402,-0.545998 -0.462,-0.546 m -2.772,-1.092 c -0.30802,3e-6 -0.46202,0.182003 -0.462,0.546 -2e-5,0.364002 0.15398,0.546002 0.462,0.546 0.30798,2e-6 0.46198,-0.181998 0.462,-0.546 -2e-5,-0.363997 -0.15402,-0.545997 -0.462,-0.546 m -0.546,-0.546 c -0.30802,4e-6 -0.46202,0.182004 -0.462,0.546 -2e-5,0.364003 0.15398,0.546003 0.462,0.546 0.30798,3e-6 0.46198,-0.181997 0.462,-0.546 -2e-5,-0.363996 -0.15402,-0.545996 -0.462,-0.546 m -1.134,-1.134 c 0.19598,0.112005 0.36398,0.280005 0.504,0.504 0.16798,0.196004 0.18198,0.406004 0.042,0.63 l 1.134,-0.588 -0.546,-1.092 -1.134,0.546 m 2.226,0.546 c -0.30802,4e-6 -0.46202,0.196004 -0.462,0.588 -2e-5,0.364003 0.15398,0.546003 0.462,0.546 0.30798,3e-6 0.46198,-0.181997 0.462,-0.546 -2e-5,-0.391996 -0.15402,-0.587996 -0.462,-0.588 m -3.318,-1.092 0.546,0.546 0.546,-1.092 -1.092,0.546 m -0.546,-1.092 c -0.30801,7e-6 -0.46201,0.182006 -0.462,0.546 -1e-5,0.364006 0.15399,0.546005 0.462,0.546 0.30799,5e-6 0.46198,-0.181994 0.462,-0.546 -2e-5,-0.363994 -0.15401,-0.545993 -0.462,-0.546 m -0.588,-0.588 c -0.30801,7e-6 -0.46201,0.196007 -0.462,0.588 -1e-5,0.364006 0.15399,0.546006 0.462,0.546 0.30799,6e-6 0.46199,-0.181994 0.462,-0.546 -1e-5,-0.391993 -0.15401,-0.587993 -0.462,-0.588 m 1.68,0 c -0.30802,7e-6 -0.46202,0.196007 -0.462,0.588 -2e-5,0.364006 0.15398,0.546006 0.462,0.546 0.30798,6e-6 0.46198,-0.181994 0.462,-0.546 -2e-5,-0.391993 -0.15402,-0.587993 -0.462,-0.588 m -2.226,-0.546 c -0.30801,8e-6 -0.46201,0.182008 -0.462,0.546 -1e-5,0.392007 0.15399,0.588007 0.462,0.588 0.30799,7e-6 0.46199,-0.195993 0.462,-0.588 -1e-5,-0.363992 -0.15401,-0.545992 -0.462,-0.546 m 1.68,0 c -0.30801,8e-6 -0.46201,0.182008 -0.462,0.546 -1e-5,0.392007 0.15399,0.588007 0.462,0.588 0.30798,7e-6 0.46198,-0.195993 0.462,-0.588 -2e-5,-0.363992 -0.15402,-0.545992 -0.462,-0.546 m -2.226,-0.546 c -0.30801,8e-6 -0.46201,0.182008 -0.462,0.546 -1e-5,0.364007 0.15399,0.546007 0.462,0.546 0.30799,7e-6 0.46199,-0.181993 0.462,-0.546 -1e-5,-0.363992 -0.15401,-0.545992 -0.462,-0.546 m 1.68,0 c -0.30801,8e-6 -0.46201,0.182008 -0.462,0.546 -1e-5,0.364007 0.15399,0.546007 0.462,0.546 0.30799,7e-6 0.46198,-0.181993 0.462,-0.546 -2e-5,-0.363992 -0.15401,-0.545992 -0.462,-0.546 m -2.226,-0.546 c -0.30801,9e-6 -0.46201,0.182009 -0.462,0.546 -1e-5,0.364008 0.15399,0.546008 0.462,0.546 0.30799,8e-6 0.46199,-0.181992 0.462,-0.546 -1e-5,-0.363991 -0.15401,-0.545991 -0.462,-0.546 m 1.638,0 c -0.30801,9e-6 -0.46201,0.182009 -0.462,0.546 -1e-5,0.364008 0.15399,0.546008 0.462,0.546 0.30799,8e-6 0.46199,-0.181992 0.462,-0.546 -1e-5,-0.363991 -0.15401,-0.545991 -0.462,-0.546 m -1.638,-1.134 -0.546,1.134 1.092,-0.546 -0.546,-0.588 m -1.134,0 c -0.30801,1e-5 -0.46201,0.19601 -0.462,0.588 -1e-5,0.364009 0.15399,0.546009 0.462,0.546 0.30799,9e-6 0.46199,-0.181991 0.462,-0.546 -1e-5,-0.39199 -0.15401,-0.58799 -0.462,-0.588 m -0.546,-0.546 c -0.30801,10e-6 -0.46201,0.18201 -0.462,0.546 -1e-5,0.39201 0.15399,0.588009 0.462,0.588 0.30799,9e-6 0.46199,-0.19599 0.462,-0.588 -1e-5,-0.36399 -0.15401,-0.54599 -0.462,-0.546 m -0.546,-0.546 c -0.30801,1.1e-5 -0.46201,0.182011 -0.462,0.546 -1e-5,0.36401 0.15399,0.54601 0.462,0.546 0.30799,1e-5 0.46199,-0.18199 0.462,-0.546 -10e-6,-0.363989 -0.15401,-0.545989 -0.462,-0.546 m 1.68,0 c -0.30801,1.1e-5 -0.46201,0.182011 -0.462,0.546 -10e-6,0.36401 0.15399,0.54601 0.462,0.546 0.30799,1e-5 0.46199,-0.18199 0.462,-0.546 -1e-5,-0.363989 -0.15401,-0.545989 -0.462,-0.546 m -2.226,-0.546 c -0.30801,1.2e-5 -0.46201,0.182011 -0.462,0.546 -10e-6,0.364011 0.15399,0.54601 0.462,0.546 0.30799,10e-6 0.46199,-0.181989 0.462,-0.546 -1e-5,-0.363989 -0.15401,-0.545988 -0.462,-0.546 m 1.638,0 c -0.30801,1.2e-5 -0.46201,0.182011 -0.462,0.546 -1e-5,0.364011 0.15399,0.54601 0.462,0.546 0.30799,10e-6 0.46199,-0.181989 0.462,-0.546 -1e-5,-0.363989 -0.15401,-0.545988 -0.462,-0.546 m -1.638,-0.546 c -0.056,-0.08399 -0.14001,-0.111988 -0.252,-0.084 -0.084,0.02801 -0.16801,0.08401 -0.252,0.168 -0.056,0.05601 -0.098,0.140012 -0.126,0.252 -0.028,0.08401 -1e-5,0.154012 0.084,0.21 0.16799,0.08401 0.32199,0.05601 0.462,-0.084 0.13999,-0.139988 0.16799,-0.293988 0.084,-0.462 m 1.092,0 c -0.30801,1.2e-5 -0.46201,0.182012 -0.462,0.546 -1e-5,0.364011 0.15399,0.546011 0.462,0.546 0.30799,1.1e-5 0.46199,-0.181989 0.462,-0.546 -1e-5,-0.363988 -0.15401,-0.545988 -0.462,-0.546 m -1.638,-0.588 c -0.11201,-0.139987 -0.28001,-0.09799 -0.504,0.126 -0.19601,0.196012 -0.22401,0.350012 -0.084,0.462 0.19599,0.08401 0.36399,0.05601 0.504,-0.084 0.13999,-0.139988 0.16799,-0.307987 0.084,-0.504 m -1.134,-0.546 c -0.30801,1.3e-5 -0.46201,0.182013 -0.462,0.546 -1e-5,0.392012 0.15399,0.588012 0.462,0.588 0.30799,1.2e-5 0.46199,-0.195988 0.462,-0.588 -10e-6,-0.363987 -0.15401,-0.545987 -0.462,-0.546 m -2.226,-0.546 c -0.30801,1.4e-5 -0.46201,0.182014 -0.462,0.546 -1e-5,0.364013 0.15399,0.546013 0.462,0.546 0.30799,1.3e-5 0.46199,-0.181987 0.462,-0.546 -10e-6,-0.363986 -0.15401,-0.545986 -0.462,-0.546 m 1.134,-0.546 c -0.30801,1.4e-5 -0.46201,0.182014 -0.462,0.546 -1e-5,0.364013 0.15399,0.546013 0.462,0.546 0.30799,1.3e-5 0.46199,-0.181987 0.462,-0.546 -1e-5,-0.363986 -0.15401,-0.545986 -0.462,-0.546 m -0.546,-0.546 c -0.30801,1.5e-5 -0.46201,0.182015 -0.462,0.546 -1e-5,0.364014 0.15399,0.546014 0.462,0.546 0.30799,1.4e-5 0.46199,-0.181986 0.462,-0.546 -1e-5,-0.363985 -0.15401,-0.545985 -0.462,-0.546 m 11.634,-12.222 c -0.056,-0.08397 -0.14002,-0.09797 -0.252,-0.042 -0.084,0.02803 -0.16802,0.08403 -0.252,0.168 -0.056,0.05603 -0.098,0.140027 -0.126,0.252 -0.028,0.08403 -2e-5,0.140027 0.084,0.168 0.16798,0.112026 0.32198,0.09803 0.462,-0.042 0.13998,-0.139973 0.16798,-0.307973 0.084,-0.504 m 1.092,0 c -0.056,-0.08397 -0.12602,-0.09797 -0.21,-0.042 -0.084,0.02803 -0.16802,0.08403 -0.252,0.168 -0.084,0.05603 -0.14002,0.140027 -0.168,0.252 -0.028,0.08403 -2e-5,0.140027 0.084,0.168 0.19598,0.112026 0.36398,0.09803 0.504,-0.042 0.13998,-0.139973 0.15398,-0.307973 0.042,-0.504 m -15.498,-0.546 c -0.308,2.8e-5 -0.462,0.182027 -0.462,0.546 0,0.364027 0.154,0.546027 0.462,0.546 0.308,2.7e-5 0.462,-0.181973 0.462,-0.546 0,-0.363973 -0.154,-0.545972 -0.462,-0.546 m 16.632,-0.546 c -0.30802,2.8e-5 -0.46202,0.182028 -0.462,0.546 -2e-5,0.364027 0.15398,0.546027 0.462,0.546 0.30798,2.7e-5 0.46198,-0.181973 0.462,-0.546 -2e-5,-0.363972 -0.15402,-0.545972 -0.462,-0.546 m -0.588,0 c 0.028,-0.111972 -0.028,-0.181972 -0.168,-0.21 -0.11202,-0.02797 -0.23802,-0.04197 -0.378,-0.042 -0.14002,2.8e-5 -0.28002,0.01403 -0.42,0.042 -0.11202,0.02803 -0.15402,0.09803 -0.126,0.21 0.028,0.08403 0.084,0.154028 0.168,0.21 0.11198,0.02803 0.23798,0.04203 0.378,0.042 0.30798,2.8e-5 0.48998,-0.08397 0.546,-0.252" />
        </g>
        <g
           id="text2842"
           style="font-size:40px;font-style:normal;font-variant:normal;font-weight:normal;font-stretch:normal;text-align:center;text-anchor:middle;fill:#000000;fill-opacity:1;stroke:none;font-family:SPQR;-inkscape-font-specification:SPQR">
          <path
             id="path2977"
             d="m 41.653533,102.72306 c -5e-6,1.65336 0.01333,3.32002 0.04,5 0.05333,1.65335 0.05333,3.30668 0,4.96 -0.02667,1.65335 -0.120005,3.30668 -0.28,4.96 -0.160005,1.65334 -0.426671,3.28001 -0.8,4.88 -0.08,0.29334 -0.26667,0.57334 -0.56,0.84 -0.293336,0.24 -0.600003,0.46667 -0.92,0.68 -0.320002,0.21334 -0.613335,0.4 -0.88,0.56 -0.240001,0.13334 -0.360001,0.22667 -0.36,0.28 -10e-7,0.13334 0.02667,0.22667 0.08,0.28 l 10.04,-0.52 0,-0.2 c -0.213345,0 -0.506678,-0.04 -0.88,-0.12 -0.346677,-0.08 -0.693343,-0.2 -1.04,-0.36 -0.346676,-0.16 -0.653342,-0.36 -0.92,-0.6 -0.240008,-0.23999 -0.360008,-0.51999 -0.36,-0.84 l 0,-9.28 c 0.746658,1e-5 1.346657,-0.0133 1.8,-0.04 0.47999,-0.0266 0.893322,2e-5 1.24,0.08 0.346655,0.08 0.679988,0.26668 1,0.56 0.346654,0.26668 0.759987,0.69335 1.24,1.28 0.13332,-0.29332 0.266653,-0.58665 0.4,-0.88 0.159986,-0.29332 0.386652,-0.51999 0.68,-0.68 -1.5e-5,0.08 0.01332,0.21335 0.04,0.4 0.02665,0.16001 0.03999,0.28001 0.04,0.36 -1.5e-5,0.21335 -0.04001,0.38668 -0.12,0.52 -0.05335,0.13335 -0.120014,0.25335 -0.2,0.36 -0.08001,0.08 -0.160014,0.17335 -0.24,0.28 -0.05335,0.10668 -0.08001,0.25335 -0.08,0.44 -1.4e-5,0.0267 -1.4e-5,0.08 0,0.16 0.02665,0.08 0.03999,0.12001 0.04,0.12 0.02665,0.10668 0.106653,0.29335 0.24,0.56 0.159986,0.24001 0.319985,0.49334 0.48,0.76 0.186652,0.26668 0.359985,0.53334 0.52,0.8 0.159985,0.24001 0.266651,0.41334 0.32,0.52 l 2.12,-1.08 0,0.28 c -1.8e-5,0.40001 -0.09335,0.76001 -0.28,1.08 -0.186684,0.29334 -0.480017,0.44001 -0.88,0.44 -1.7e-5,0.13334 0.03998,0.24001 0.12,0.32 0.02665,0.08 0.10665,0.24001 0.24,0.48 0.159983,0.24001 0.319983,0.50667 0.48,0.8 0.186649,0.26667 0.359982,0.53334 0.52,0.8 0.159982,0.26667 0.266648,0.45334 0.32,0.56 0.106648,0.16001 0.239982,0.36001 0.4,0.6 0.186648,0.24 0.359981,0.48 0.52,0.72 0.186647,0.21334 0.346647,0.4 0.48,0.56 0.133314,0.16 0.19998,0.24 0.2,0.24 l 5.28,0 c -0.560025,-0.21333 -1.000024,-0.42666 -1.32,-0.64 -0.320023,-0.21333 -0.62669,-0.41333 -0.92,-0.6 -0.266689,-0.18666 -0.560022,-0.33333 -0.88,-0.44 -0.293355,-0.10666 -0.693355,-0.15999 -1.2,-0.16 -2.1e-5,-1.06666 -0.226687,-2.03999 -0.68,-2.92 -0.453353,-0.90666 -0.986686,-1.77332 -1.6,-2.6 -0.613351,-0.85332 -1.240017,-1.70665 -1.88,-2.56 -0.640016,-0.85332 -1.160015,-1.77332 -1.56,-2.76 0.719984,-0.18665 1.34665,-0.51998 1.88,-1 0.559982,-0.50665 1.013315,-1.07998 1.36,-1.72 0.373315,-0.66665 0.639981,-1.35998 0.8,-2.08 0.186647,-0.74664 0.279981,-1.43998 0.28,-2.08 -1.9e-5,-0.66664 -0.160019,-1.42664 -0.48,-2.28 -0.320019,-0.85331 -0.746685,-1.65331 -1.28,-2.4 -0.53335,-0.773305 -1.160016,-1.413304 -1.88,-1.919997 -0.720015,-0.506639 -1.480014,-0.759973 -2.28,-0.76 l -11.6,0 c 0.773331,0.213361 1.37333,0.45336 1.8,0.72 0.426663,0.240027 0.733329,0.546693 0.92,0.92 0.213329,0.373359 0.333328,0.840027 0.36,1.399997 0.05333,0.53336 0.08,1.18669 0.08,1.96 m 1.96,19.6 c 0.07999,1e-5 0.133326,0.0667 0.16,0.2 0.07999,0.08 0.173326,0.25334 0.28,0.52 0.133326,0.26667 0.213326,0.44 0.24,0.52 -0.293341,0.24 -0.546674,0.4 -0.76,0.48 -0.21334,0.08 -0.480006,0.12 -0.8,0.12 -0.08001,0 -0.186673,0 -0.32,0 -0.106672,-0.0267 -0.186672,-0.04 -0.24,-0.04 0.533327,0.0267 0.90666,-0.17333 1.12,-0.6 0.213326,-0.42666 0.319993,-0.82666 0.32,-1.2 m 13.88,1.24 c 0.293312,0 0.439979,0.18667 0.44,0.56 -2.1e-5,0.34667 -0.146688,0.52 -0.44,0.52 -0.266687,0 -0.40002,-0.17333 -0.4,-0.52 -2e-5,-0.37333 0.133313,-0.56 0.4,-0.56 m -15.32,-5.8 0,5.28 -1.04,0.52 c 0.293329,-0.93333 0.519995,-1.89333 0.68,-2.88 0.159995,-1.01332 0.279995,-1.98666 0.36,-2.92 m 12.68,2.92 0,-0.28 c 0.05331,-0.08 0.133315,-0.25333 0.24,-0.52 0.133315,-0.26666 0.226648,-0.43999 0.28,-0.52 -0.05335,0.24001 -0.04002,0.52001 0.04,0.84 0.07998,0.32001 0.199981,0.64001 0.36,0.96 0.159981,0.29334 0.346647,0.57334 0.56,0.84 0.213313,0.24001 0.426647,0.41334 0.64,0.52 l -1.04,0.52 0.52,0 c -0.32002,-0.23999 -0.666686,-0.57333 -1.04,-1 -0.373352,-0.45333 -0.560018,-0.90666 -0.56,-1.36 m 3.16,1.84 c 0.293312,1e-5 0.439978,0.17334 0.44,0.52 -2.2e-5,0.34667 -0.146688,0.52 -0.44,0.52 -0.266688,0 -0.400021,-0.17333 -0.4,-0.52 -2.1e-5,-0.34666 0.133312,-0.51999 0.4,-0.52 m -1.56,-2.12 c 0.293313,1e-5 0.43998,0.17334 0.44,0.52 -2e-5,0.37334 -0.146687,0.56001 -0.44,0.56 -0.266686,1e-5 -0.400019,-0.18666 -0.4,-0.56 -1.9e-5,-0.34666 0.133314,-0.51999 0.4,-0.52 m -2.12,-1.04 c 0.293315,10e-6 0.439982,0.17334 0.44,0.52 -1.8e-5,0.34667 -0.146685,0.52001 -0.44,0.52 -0.266684,1e-5 -0.400017,-0.17333 -0.4,-0.52 -1.7e-5,-0.34666 0.133316,-0.51999 0.4,-0.52 m 0.52,-1.08 c 0.293315,10e-6 0.439981,0.18668 0.44,0.56 -1.9e-5,0.34668 -0.146685,0.52001 -0.44,0.52 -0.266685,10e-6 -0.400018,-0.17332 -0.4,-0.52 -1.8e-5,-0.37332 0.133315,-0.55999 0.4,-0.56 m -1.56,-2.08 0,0.24 0,0.28 c -0.02668,0.08 -0.106683,0.25334 -0.24,0.52 -0.106683,0.26668 -0.21335,0.44001 -0.32,0.52 l 0,-0.24 0,-0.28 c 0.05332,-0.08 0.133317,-0.25332 0.24,-0.52 0.133317,-0.26665 0.239983,-0.43999 0.32,-0.52 m 0.52,0.52 c 0.293316,1e-5 0.439982,0.17334 0.44,0.52 -1.8e-5,0.34668 -0.146684,0.52001 -0.44,0.52 -0.266684,1e-5 -0.400017,-0.17332 -0.4,-0.52 -1.7e-5,-0.34666 0.133316,-0.51999 0.4,-0.52 m -2.2,-1.08 1.12,0 -0.52,1.08 c -0.400015,-0.23999 -0.600015,-0.59999 -0.6,-1.08 m -8.64,-16.359997 0,7.399997 0.8,-7.919997 -0.28,10.559997 0,-1.6 -0.76,7.92 0.24,-16.359997 m 9.24,14.799997 c 0.293317,1e-5 0.439984,0.17335 0.44,0.52 -1.6e-5,0.34668 -0.146683,0.52001 -0.44,0.52 -0.266682,1e-5 -0.400015,-0.17332 -0.4,-0.52 -1.5e-5,-0.34665 0.133318,-0.51999 0.4,-0.52 m -0.52,-0.52 c 0.293318,1e-5 0.439984,0.17335 0.44,0.52 -1.6e-5,0.34668 -0.146682,0.52001 -0.44,0.52 -0.266681,1e-5 -0.400015,-0.17332 -0.4,-0.52 -1.5e-5,-0.34665 0.133319,-0.51999 0.4,-0.52 m -1.04,-1.08 c -1.4e-5,0.0267 0.01332,0.08 0.04,0.16 0.02665,0.0533 0.03999,0.0934 0.04,0.12 -1.4e-5,0.0267 -0.01335,0.08 -0.04,0.16 -0.02668,0.0533 -0.04001,0.08 -0.04,0.08 -0.02668,0.10668 -0.106681,0.22668 -0.24,0.36 -0.10668,0.10668 -0.213347,0.17335 -0.32,0.2 l 0.56,-1.08 m -1.08,0 c 0.29332,2e-5 0.439987,0.17335 0.44,0.52 -1.3e-5,0.37335 -0.14668,0.56001 -0.44,0.56 -0.266679,1e-5 -0.400013,-0.18665 -0.4,-0.56 -1.3e-5,-0.34665 0.133321,-0.51998 0.4,-0.52 m -0.52,-0.52 c 0.293321,2e-5 0.439987,0.17335 0.44,0.52 -1.3e-5,0.34668 -0.146679,0.52002 -0.44,0.52 -0.266679,2e-5 -0.400012,-0.17332 -0.4,-0.52 -1.2e-5,-0.34665 0.133321,-0.51998 0.4,-0.52 m -4.76,-0.52 c 0.293325,2e-5 0.439992,0.17335 0.44,0.52 -8e-6,0.34668 -0.146675,0.52002 -0.44,0.52 -0.266674,2e-5 -0.400007,-0.17332 -0.4,-0.52 -7e-6,-0.34665 0.133326,-0.51998 0.4,-0.52 m -0.52,-1.08 c 0.293326,2e-5 0.439992,0.18668 0.44,0.56 -8e-6,0.34668 -0.146674,0.52002 -0.44,0.52 -0.266674,2e-5 -0.400007,-0.17332 -0.4,-0.52 -7e-6,-0.37332 0.133326,-0.55998 0.4,-0.56 m 1.8,-11.599997 c 3.013321,2.6e-5 5.226652,1.226692 6.64,3.679997 l 0,0.56 c -1.6e-5,0.24002 0.01332,0.50669 0.04,0.8 0.02665,0.26669 0.03998,0.52002 0.04,0.76 l 0,0.52 c -1.6e-5,1.28002 -0.160016,2.32002 -0.48,3.12 -0.320015,0.77335 -0.800014,1.38669 -1.44,1.84 -0.613346,0.42668 -1.386679,0.72002 -2.32,0.88 -0.933344,0.13335 -2.013343,0.20002 -3.24,0.2 l 0,-11.839997 c -8e-6,-0.07997 0.06666,-0.159974 0.2,-0.24 0.159991,-0.10664 0.279991,-0.199974 0.36,-0.28 l 0.2,0 m 8.76,8.959997 c -1.8e-5,0.0267 0.01332,0.10669 0.04,0.24 0.02665,0.10669 0.03998,0.21335 0.04,0.32 -1.8e-5,0.61335 -0.240018,1.13335 -0.72,1.56 -0.45335,0.40002 -0.946683,0.76002 -1.48,1.08 0.239984,-0.55998 0.533317,-1.13331 0.88,-1.72 0.34665,-0.58665 0.759983,-1.07998 1.24,-1.48 m -1.6,1.08 c 0.10665,0.18669 0.09332,0.34669 -0.04,0.48 -0.106683,0.10669 -0.266682,0.12002 -0.48,0.04 -0.08002,-0.0267 -0.106682,-0.08 -0.08,-0.16 0.05332,-0.10665 0.119984,-0.19998 0.2,-0.28 0.07998,-0.08 0.159984,-0.13331 0.24,-0.16 0.07998,-0.0267 0.133317,2e-5 0.16,0.08 m 1.08,-4.76 c -1.7e-5,0.08 0.01332,0.25336 0.04,0.52 0.02665,0.26669 0.03998,0.44002 0.04,0.52 -1.7e-5,0.40002 -0.02668,0.78669 -0.08,1.16 -0.02668,0.34669 -0.200017,0.66669 -0.52,0.96 l 0,-0.24 0,-0.28 c -1.7e-5,-0.08 0.01332,-0.23998 0.04,-0.48 0.05332,-0.26664 0.10665,-0.54664 0.16,-0.84 0.07998,-0.29331 0.14665,-0.55998 0.2,-0.8 0.05332,-0.26664 0.09332,-0.43998 0.12,-0.52 m 1.04,-1.04 c 0.106648,0.13336 0.173315,0.37336 0.2,0.72 0.02665,0.34669 0.03998,0.72002 0.04,1.12 -1.8e-5,0.40002 -0.01335,0.77336 -0.04,1.12 -0.02669,0.34669 -0.09335,0.58669 -0.2,0.72 -0.05335,0.13335 -0.106685,2e-5 -0.16,-0.4 -0.05335,-0.42664 -0.08002,-0.90664 -0.08,-1.44 -1.8e-5,-0.53331 0.02665,-0.99998 0.08,-1.4 0.05331,-0.42664 0.106648,-0.57331 0.16,-0.44 m -1.04,-1.6 c 0.426649,0.16003 0.639982,0.48003 0.64,0.96 -0.320018,3e-5 -0.613351,0.0667 -0.88,0.2 -0.240017,0.10669 -0.520016,0.25336 -0.84,0.44 l 0.68,0 c -1.7e-5,-0.10664 -0.02668,-0.19997 -0.08,-0.28 -0.02668,-0.08 -0.04002,-0.17331 -0.04,-0.28 0.05332,-0.08 0.133317,-0.25331 0.24,-0.52 0.133316,-0.26664 0.22665,-0.43997 0.28,-0.52 m -1.08,-0.52 c 0.293317,3e-5 0.439983,0.17336 0.44,0.52 -1.7e-5,0.34669 -0.146683,0.52003 -0.44,0.52 -0.240016,3e-5 -0.360016,-0.17331 -0.36,-0.52 -1.6e-5,-0.34664 0.119984,-0.51997 0.36,-0.52 m -1.04,-2.119997 c 0.293318,2.6e-5 0.439984,0.17336 0.44,0.52 -1.6e-5,0.346692 -0.146682,0.520025 -0.44,0.52 -0.266681,2.5e-5 -0.400015,-0.173308 -0.4,-0.52 -1.5e-5,-0.34664 0.133319,-0.519974 0.4,-0.52 m -1.04,-0.52 c 0.293319,2.7e-5 0.439986,0.17336 0.44,0.52 -1.4e-5,0.346693 -0.146681,0.520026 -0.44,0.52 -0.26668,2.6e-5 -0.400014,-0.173307 -0.4,-0.52 -1.4e-5,-0.34664 0.13332,-0.519973 0.4,-0.52 m -7.4,0 c -0.05334,0.160027 -0.146673,0.240027 -0.28,0.24 -0.13334,2.7e-5 -0.226673,-0.07997 -0.28,-0.24 -0.02667,-0.18664 0.06666,-0.279973 0.28,-0.28 0.26666,2.7e-5 0.359993,0.09336 0.28,0.28" />
          <path
             id="path2979"
             d="m 64.924783,111.16306 c -1e-6,1.86668 0.359998,3.65335 1.08,5.36 0.746664,1.68001 1.746663,3.16001 3,4.44 1.253327,1.28001 2.706659,2.30667 4.36,3.08 1.679989,0.74667 3.439987,1.12 5.28,1.12 1.893316,0 3.533315,-0.49333 4.92,-1.48 1.413312,-1.01333 2.573311,-2.26666 3.48,-3.76 0.933309,-1.51999 1.613308,-3.17332 2.04,-4.96 0.453307,-1.78665 0.679974,-3.46665 0.68,-5.04 -2.6e-5,-1.67998 -0.266693,-3.29331 -0.8,-4.84 -0.533358,-1.54664 -1.293357,-2.90664 -2.28,-4.08 -0.960022,-1.173305 -2.146688,-2.106637 -3.56,-2.799997 -1.413351,-0.719972 -3.000016,-1.079972 -4.76,-1.08 -1.840013,2.8e-5 -3.573344,0.386694 -5.2,1.16 -1.626675,0.773359 -3.05334,1.813357 -4.28,3.119997 -1.200004,1.30669 -2.160003,2.80002 -2.88,4.48 -0.720002,1.68002 -1.080001,3.44002 -1.08,5.28 m 4.16,0.08 c -5e-6,-1.27998 0.133328,-2.65331 0.4,-4.12 0.293327,-1.46664 0.759993,-2.81331 1.4,-4.04 0.666659,-1.25331 1.533325,-2.29331 2.6,-3.119997 1.093322,-0.826641 2.453321,-1.239974 4.08,-1.24 1.626651,2.6e-5 3.013316,0.373359 4.16,1.12 1.146647,0.720027 2.07998,1.666687 2.8,2.839997 0.719978,1.17336 1.239978,2.48002 1.56,3.92 0.319977,1.44002 0.479977,2.88002 0.48,4.32 -2.3e-5,1.28002 -0.160023,2.66668 -0.48,4.16 -0.320022,1.46668 -0.826688,2.84001 -1.52,4.12 -0.693354,1.25334 -1.600019,2.30667 -2.72,3.16 -1.09335,0.85334 -2.426682,1.28 -4,1.28 -1.600013,0 -2.960011,-0.4 -4.08,-1.2 -1.120009,-0.79999 -2.026675,-1.79999 -2.72,-3 -0.69334,-1.22666 -1.200006,-2.55999 -1.52,-4 -0.293339,-1.46665 -0.440005,-2.86665 -0.44,-4.2 m 0.04,8.12 c 0.293328,10e-6 0.439994,0.17334 0.44,0.52 -6e-6,0.34667 -0.146672,0.52001 -0.44,0.52 -0.293339,1e-5 -0.440005,-0.17333 -0.44,-0.52 -5e-6,-0.34666 0.146661,-0.51999 0.44,-0.52 m -0.52,-0.52 c 0.293328,1e-5 0.439995,0.17334 0.44,0.52 -5e-6,0.34668 -0.146672,0.52001 -0.44,0.52 -0.293338,1e-5 -0.440005,-0.17332 -0.44,-0.52 -5e-6,-0.34666 0.146662,-0.51999 0.44,-0.52 m 19.52,-13.76 c 0.399975,0.93336 0.679975,1.89335 0.84,2.88 0.186641,0.98669 0.279974,1.97335 0.28,2.96 -2.6e-5,0.48002 -0.05336,1.14668 -0.16,2 -0.106692,0.82668 -0.280025,1.68001 -0.52,2.56 -0.213358,0.88001 -0.493358,1.69334 -0.84,2.44 -0.320024,0.72001 -0.70669,1.20001 -1.16,1.44 0.02664,-0.08 0.119977,-0.35999 0.28,-0.84 0.159977,-0.50666 0.33331,-1.03999 0.52,-1.6 0.186643,-0.58665 0.359976,-1.14665 0.52,-1.68 0.159976,-0.55999 0.239976,-0.94665 0.24,-1.16 -2.4e-5,-0.31999 -2.4e-5,-0.90665 0,-1.76 0.02664,-0.87998 0.03998,-1.78665 0.04,-2.72 -2.5e-5,-0.95998 -0.01336,-1.86665 -0.04,-2.72 -2.4e-5,-0.87998 -2.4e-5,-1.47998 0,-1.8 m -20.04,13.2 c 0.159995,0.08 0.239995,0.17334 0.24,0.28 -5e-6,0.13334 -0.09334,0.22668 -0.28,0.28 -0.160004,0.0267 -0.240004,-0.0667 -0.24,-0.28 -4e-6,-0.21332 0.09333,-0.30666 0.28,-0.28 m -0.52,-1.04 c 0.159996,0.0533 0.239996,0.14668 0.24,0.28 -4e-6,0.13334 -0.09334,0.22668 -0.28,0.28 -0.160004,0.0267 -0.240004,-0.0667 -0.24,-0.28 -4e-6,-0.21332 0.09333,-0.30666 0.28,-0.28 m 1.56,0 c 0.293328,1e-5 0.439994,0.17334 0.44,0.52 -6e-6,0.34668 -0.146672,0.52001 -0.44,0.52 -0.293339,10e-6 -0.440005,-0.17332 -0.44,-0.52 -5e-6,-0.34666 0.146661,-0.51999 0.44,-0.52 m 17.44,-0.52 c 0.29331,1e-5 0.439977,0.17334 0.44,0.52 -2.3e-5,0.34668 -0.14669,0.52001 -0.44,0.52 -0.293356,1e-5 -0.440022,-0.17332 -0.44,-0.52 -2.2e-5,-0.34666 0.146644,-0.51999 0.44,-0.52 m -17.96,-0.52 c 0.293328,1e-5 0.439995,0.17335 0.44,0.52 -5e-6,0.34668 -0.146672,0.52001 -0.44,0.52 -0.293338,1e-5 -0.440005,-0.17332 -0.44,-0.52 -5e-6,-0.34665 0.146662,-0.51999 0.44,-0.52 m -2.68,-5.04 c -2e-6,-0.34665 -2e-6,-0.65332 0,-0.92 -2e-6,-0.26665 0.01333,-0.51998 0.04,-0.76 0.05333,-0.26665 0.119998,-0.53331 0.2,-0.8 0.08,-0.26665 0.186664,-0.58665 0.32,-0.96 0.05333,0.29335 0.106664,0.78669 0.16,1.48 0.05333,0.69335 0.106664,1.44002 0.16,2.24 0.05333,0.77335 0.09333,1.52002 0.12,2.24 0.05333,0.69335 0.08,1.17335 0.08,1.44 l 0,0.52 0,0.56 c -0.533336,-0.71999 -0.853336,-1.53332 -0.96,-2.44 -0.08,-0.90665 -0.120002,-1.77332 -0.12,-2.6 m 1.6,0 c -4e-6,-0.23998 -0.01334,-0.62665 -0.04,-1.16 -0.02667,-0.55998 -0.02667,-1.13331 0,-1.72 0.05333,-0.58665 0.159996,-1.13331 0.32,-1.64 0.159996,-0.50664 0.426662,-0.83998 0.8,-1 l 0,0.24 0,0.28 c -5e-6,0.08 -0.02667,0.28002 -0.08,0.6 -0.05334,0.29335 -0.120005,0.62669 -0.2,1 -0.05334,0.34669 -0.106671,0.68002 -0.16,1 -0.05334,0.29335 -0.08,0.48002 -0.08,0.56 -4e-6,0.29335 -0.01334,0.74668 -0.04,1.36 -4e-6,0.61335 -4e-6,1.30668 0,2.08 -4e-6,0.74668 -4e-6,1.44001 0,2.08 0.02666,0.64001 0.04,1.09335 0.04,1.36 -0.373337,-0.87999 -0.560004,-1.70665 -0.56,-2.48 l 0,-2.56 m 19.56,3.44 c 0.29331,1e-5 0.439976,0.17335 0.44,0.52 -2.4e-5,0.34668 -0.14669,0.52001 -0.44,0.52 -0.293356,10e-6 -0.440023,-0.17332 -0.44,-0.52 -2.3e-5,-0.34665 0.146644,-0.51999 0.44,-0.52 m 0.52,-5.8 c 0.106643,0.13335 0.173309,0.37335 0.2,0.72 0.02664,0.34669 0.03998,0.72002 0.04,1.12 -2.4e-5,0.40002 -0.01336,0.77335 -0.04,1.12 -0.02669,0.34668 -0.09336,0.58668 -0.2,0.72 -0.08002,0.13335 -0.14669,2e-5 -0.2,-0.4 -0.02669,-0.42665 -0.04002,-0.90665 -0.04,-1.44 -2.4e-5,-0.53332 0.01331,-0.99998 0.04,-1.4 0.05331,-0.42665 0.119976,-0.57331 0.2,-0.44 m -20.6,-2.64 c 0.186663,0.0267 0.279996,0.10669 0.28,0.24 -4e-6,0.13336 -0.09334,0.22669 -0.28,0.28 -0.160003,0.0534 -0.240003,-0.04 -0.24,-0.28 -3e-6,-0.18664 0.08,-0.26664 0.24,-0.24 m 20.08,-0.52 c 0.186643,0.0534 0.279976,0.13336 0.28,0.24 -2.4e-5,0.13336 -0.09336,0.22669 -0.28,0.28 -0.18669,0.0534 -0.280023,-0.04 -0.28,-0.28 -2.3e-5,-0.23998 0.09331,-0.31998 0.28,-0.24 m -19,-1.6 -0.52,1.04 c -4e-6,-0.0266 -0.01334,-0.0666 -0.04,-0.12 -4e-6,-0.0533 -4e-6,-0.0933 0,-0.12 -4e-6,-0.0266 -4e-6,-0.08 0,-0.16 0.02666,-0.08 0.04,-0.11998 0.04,-0.12 0.02666,-0.08 0.09333,-0.17331 0.2,-0.28 0.106662,-0.13331 0.213329,-0.21331 0.32,-0.24 m 1.04,0 c 0.186661,0.0267 0.279994,0.12002 0.28,0.28 -6e-6,0.10669 -0.09334,0.20002 -0.28,0.28 -0.160005,0.0534 -0.240005,-0.04 -0.24,-0.28 -5e-6,-0.21331 0.07999,-0.30664 0.24,-0.28 m 17.44,0 c 0.29331,2e-5 0.439977,0.17336 0.44,0.52 -2.3e-5,0.34669 -0.14669,0.52002 -0.44,0.52 -0.293356,2e-5 -0.440022,-0.17331 -0.44,-0.52 -2.2e-5,-0.34664 0.146644,-0.51998 0.44,-0.52 m 1.04,0 c 0.186643,0.0267 0.279976,0.12002 0.28,0.28 -2.4e-5,0.10669 -0.09336,0.20002 -0.28,0.28 -0.160024,0.0534 -0.240024,-0.04 -0.24,-0.28 -2.4e-5,-0.21331 0.07998,-0.30664 0.24,-0.28 m -1.56,-1.04 c 0.293311,3e-5 0.439977,0.17336 0.44,0.52 -2.3e-5,0.34669 -0.146689,0.52002 -0.44,0.52 -0.293355,2e-5 -0.440022,-0.17331 -0.44,-0.52 -2.2e-5,-0.34664 0.146645,-0.51997 0.44,-0.52 m 1.04,-0.56 c 0.186643,0.10669 0.279976,0.29336 0.28,0.56 -2.4e-5,0.29336 -0.09336,0.46669 -0.28,0.52 -0.08002,0.0267 -0.14669,-0.0133 -0.2,-0.12 -0.05336,-0.13331 -0.08002,-0.26664 -0.08,-0.4 -2.3e-5,-0.13331 0.02664,-0.26664 0.08,-0.4 0.05331,-0.13331 0.119977,-0.18664 0.2,-0.16 m -0.52,-1.04 c 0.29331,3e-5 0.439977,0.17336 0.44,0.52 -2.3e-5,0.34669 -0.14669,0.52003 -0.44,0.52 -0.293356,3e-5 -0.440022,-0.17331 -0.44,-0.52 -2.2e-5,-0.34664 0.146644,-0.51997 0.44,-0.52 m -16.36,-0.52 c 0.293326,3e-5 0.439993,0.17336 0.44,0.52 -7e-6,0.34669 -0.146674,0.52003 -0.44,0.52 -0.29334,3e-5 -0.440006,-0.17331 -0.44,-0.52 -6e-6,-0.34664 0.14666,-0.51997 0.44,-0.52 m 15.84,0 c 0.293311,3e-5 0.439977,0.17336 0.44,0.52 -2.3e-5,0.34669 -0.146689,0.52003 -0.44,0.52 -0.293355,3e-5 -0.440022,-0.17331 -0.44,-0.52 -2.2e-5,-0.34664 0.146645,-0.51997 0.44,-0.52 m -0.56,-0.52 c 0.293311,3e-5 0.439978,0.17336 0.44,0.52 -2.2e-5,0.34669 -0.146689,0.52003 -0.44,0.52 -0.293355,3e-5 -0.440021,-0.17331 -0.44,-0.52 -2.1e-5,-0.34664 0.146645,-0.51997 0.44,-0.52 m -0.52,-0.559997 c 0.293312,2.5e-5 0.439978,0.186692 0.44,0.559997 -2.2e-5,0.34669 -0.146688,0.52003 -0.44,0.52 -0.293354,3e-5 -0.440021,-0.17331 -0.44,-0.52 -2.1e-5,-0.373305 0.146646,-0.559972 0.44,-0.559997 m -0.52,-0.52 c 0.293312,2.6e-5 0.439979,0.173359 0.44,0.52 -2.1e-5,0.373357 -0.146688,0.560027 -0.44,0.559997 -0.293354,3e-5 -0.44002,-0.18664 -0.44,-0.559997 -2e-5,-0.346641 0.146646,-0.519974 0.44,-0.52" />
          <path
             id="path2981"
             d="m 92.971658,111.16306 c -1e-6,1.86668 0.359998,3.65335 1.08,5.36 0.746664,1.68001 1.746663,3.16001 3,4.44 1.253327,1.28001 2.706659,2.30667 4.360002,3.08 1.67999,0.74667 3.43998,1.12 5.28,1.12 1.89331,0 3.53331,-0.49333 4.92,-1.48 1.41331,-1.01333 2.57331,-2.26666 3.48,-3.76 0.93331,-1.51999 1.61331,-3.17332 2.04,-4.96 0.45331,-1.78665 0.67997,-3.46665 0.68,-5.04 -3e-5,-1.67998 -0.26669,-3.29331 -0.8,-4.84 -0.53336,-1.54664 -1.29336,-2.90664 -2.28,-4.08 -0.96002,-1.173305 -2.14669,-2.106637 -3.56,-2.799997 -1.41335,-0.719972 -3.00002,-1.079972 -4.76,-1.08 -1.84001,2.8e-5 -3.57335,0.386694 -5.2,1.16 -1.626677,0.773359 -3.053342,1.813357 -4.280002,3.119997 -1.200004,1.30669 -2.160003,2.80002 -2.88,4.48 -0.720002,1.68002 -1.080001,3.44002 -1.08,5.28 m 4.16,0.08 c -5e-6,-1.27998 0.133328,-2.65331 0.4,-4.12 0.293327,-1.46664 0.759993,-2.81331 1.4,-4.04 0.666659,-1.25331 1.533322,-2.29331 2.600002,-3.119997 1.09332,-0.826641 2.45332,-1.239974 4.08,-1.24 1.62665,2.6e-5 3.01331,0.373359 4.16,1.12 1.14665,0.720027 2.07998,1.666687 2.8,2.839997 0.71998,1.17336 1.23998,2.48002 1.56,3.92 0.31998,1.44002 0.47998,2.88002 0.48,4.32 -2e-5,1.28002 -0.16002,2.66668 -0.48,4.16 -0.32002,1.46668 -0.82669,2.84001 -1.52,4.12 -0.69336,1.25334 -1.60002,2.30667 -2.72,3.16 -1.09335,0.85334 -2.42668,1.28 -4,1.28 -1.60001,0 -2.96001,-0.4 -4.08,-1.2 -1.12001,-0.79999 -2.026677,-1.79999 -2.720002,-3 -0.69334,-1.22666 -1.200006,-2.55999 -1.52,-4 -0.293339,-1.46665 -0.440005,-2.86665 -0.44,-4.2 m 0.04,8.12 c 0.293328,10e-6 0.439994,0.17334 0.44,0.52 -6e-6,0.34667 -0.146672,0.52001 -0.44,0.52 -0.293339,1e-5 -0.440005,-0.17333 -0.44,-0.52 -5e-6,-0.34666 0.146661,-0.51999 0.44,-0.52 m -0.52,-0.52 c 0.293328,1e-5 0.439995,0.17334 0.44,0.52 -5e-6,0.34668 -0.146672,0.52001 -0.44,0.52 -0.293338,1e-5 -0.440005,-0.17332 -0.44,-0.52 -5e-6,-0.34666 0.146662,-0.51999 0.44,-0.52 m 19.520002,-13.76 c 0.39997,0.93336 0.67997,1.89335 0.84,2.88 0.18664,0.98669 0.27997,1.97335 0.28,2.96 -3e-5,0.48002 -0.0534,1.14668 -0.16,2 -0.10669,0.82668 -0.28003,1.68001 -0.52,2.56 -0.21336,0.88001 -0.49336,1.69334 -0.84,2.44 -0.32003,0.72001 -0.70669,1.20001 -1.16,1.44 0.0266,-0.08 0.11997,-0.35999 0.28,-0.84 0.15997,-0.50666 0.33331,-1.03999 0.52,-1.6 0.18664,-0.58665 0.35997,-1.14665 0.52,-1.68 0.15997,-0.55999 0.23997,-0.94665 0.24,-1.16 -3e-5,-0.31999 -3e-5,-0.90665 0,-1.76 0.0266,-0.87998 0.04,-1.78665 0.04,-2.72 -3e-5,-0.95998 -0.0134,-1.86665 -0.04,-2.72 -3e-5,-0.87998 -3e-5,-1.47998 0,-1.8 m -20.040002,13.2 c 0.159995,0.08 0.239995,0.17334 0.24,0.28 -5e-6,0.13334 -0.09334,0.22668 -0.28,0.28 -0.160004,0.0267 -0.240004,-0.0667 -0.24,-0.28 -4e-6,-0.21332 0.09333,-0.30666 0.28,-0.28 m -0.52,-1.04 c 0.159996,0.0533 0.239996,0.14668 0.24,0.28 -4e-6,0.13334 -0.09334,0.22668 -0.28,0.28 -0.160004,0.0267 -0.240004,-0.0667 -0.24,-0.28 -4e-6,-0.21332 0.09333,-0.30666 0.28,-0.28 m 1.56,0 c 0.293328,1e-5 0.439994,0.17334 0.44,0.52 -6e-6,0.34668 -0.146672,0.52001 -0.44,0.52 -0.293339,10e-6 -0.440005,-0.17332 -0.44,-0.52 -5e-6,-0.34666 0.146661,-0.51999 0.44,-0.52 m 17.440002,-0.52 c 0.29331,1e-5 0.43997,0.17334 0.44,0.52 -3e-5,0.34668 -0.14669,0.52001 -0.44,0.52 -0.29336,1e-5 -0.44002,-0.17332 -0.44,-0.52 -2e-5,-0.34666 0.14664,-0.51999 0.44,-0.52 m -17.960002,-0.52 c 0.293328,1e-5 0.439995,0.17335 0.44,0.52 -5e-6,0.34668 -0.146672,0.52001 -0.44,0.52 -0.293338,1e-5 -0.440005,-0.17332 -0.44,-0.52 -5e-6,-0.34665 0.146662,-0.51999 0.44,-0.52 m -2.68,-5.04 c -2e-6,-0.34665 -2e-6,-0.65332 0,-0.92 -2e-6,-0.26665 0.01333,-0.51998 0.04,-0.76 0.05333,-0.26665 0.119998,-0.53331 0.2,-0.8 0.08,-0.26665 0.186664,-0.58665 0.32,-0.96 0.05333,0.29335 0.106664,0.78669 0.16,1.48 0.05333,0.69335 0.106664,1.44002 0.16,2.24 0.05333,0.77335 0.09333,1.52002 0.12,2.24 0.05333,0.69335 0.08,1.17335 0.08,1.44 l 0,0.52 0,0.56 c -0.533336,-0.71999 -0.853336,-1.53332 -0.96,-2.44 -0.08,-0.90665 -0.120002,-1.77332 -0.12,-2.6 m 1.6,0 c -4e-6,-0.23998 -0.01334,-0.62665 -0.04,-1.16 -0.02667,-0.55998 -0.02667,-1.13331 0,-1.72 0.05333,-0.58665 0.159996,-1.13331 0.32,-1.64 0.159996,-0.50664 0.426662,-0.83998 0.8,-1 l 0,0.24 0,0.28 c -5e-6,0.08 -0.02667,0.28002 -0.08,0.6 -0.05334,0.29335 -0.120005,0.62669 -0.2,1 -0.05334,0.34669 -0.106671,0.68002 -0.16,1 -0.05334,0.29335 -0.08,0.48002 -0.08,0.56 -4e-6,0.29335 -0.01334,0.74668 -0.04,1.36 -4e-6,0.61335 -4e-6,1.30668 0,2.08 -4e-6,0.74668 -4e-6,1.44001 0,2.08 0.02666,0.64001 0.04,1.09335 0.04,1.36 -0.373337,-0.87999 -0.560004,-1.70665 -0.56,-2.48 l 0,-2.56 m 19.560002,3.44 c 0.29331,1e-5 0.43997,0.17335 0.44,0.52 -3e-5,0.34668 -0.14669,0.52001 -0.44,0.52 -0.29336,10e-6 -0.44002,-0.17332 -0.44,-0.52 -2e-5,-0.34665 0.14664,-0.51999 0.44,-0.52 m 0.52,-5.8 c 0.10664,0.13335 0.17331,0.37335 0.2,0.72 0.0266,0.34669 0.04,0.72002 0.04,1.12 -3e-5,0.40002 -0.0134,0.77335 -0.04,1.12 -0.0267,0.34668 -0.0934,0.58668 -0.2,0.72 -0.08,0.13335 -0.14669,2e-5 -0.2,-0.4 -0.0267,-0.42665 -0.04,-0.90665 -0.04,-1.44 -3e-5,-0.53332 0.0133,-0.99998 0.04,-1.4 0.0533,-0.42665 0.11997,-0.57331 0.2,-0.44 m -20.600002,-2.64 c 0.186663,0.0267 0.279996,0.10669 0.28,0.24 -4e-6,0.13336 -0.09334,0.22669 -0.28,0.28 -0.160003,0.0534 -0.240003,-0.04 -0.24,-0.28 -3e-6,-0.18664 0.08,-0.26664 0.24,-0.24 m 20.080002,-0.52 c 0.18664,0.0534 0.27997,0.13336 0.28,0.24 -3e-5,0.13336 -0.0934,0.22669 -0.28,0.28 -0.18669,0.0534 -0.28003,-0.04 -0.28,-0.28 -3e-5,-0.23998 0.0933,-0.31998 0.28,-0.24 m -19.000002,-1.6 -0.52,1.04 c -4e-6,-0.0266 -0.01334,-0.0666 -0.04,-0.12 -4e-6,-0.0533 -4e-6,-0.0933 0,-0.12 -4e-6,-0.0266 -4e-6,-0.08 0,-0.16 0.02666,-0.08 0.04,-0.11998 0.04,-0.12 0.02666,-0.08 0.09333,-0.17331 0.2,-0.28 0.106662,-0.13331 0.213329,-0.21331 0.32,-0.24 m 1.04,0 c 0.186661,0.0267 0.279994,0.12002 0.28,0.28 -6e-6,0.10669 -0.09334,0.20002 -0.28,0.28 -0.160005,0.0534 -0.240005,-0.04 -0.24,-0.28 -5e-6,-0.21331 0.07999,-0.30664 0.24,-0.28 m 17.440002,0 c 0.29331,2e-5 0.43997,0.17336 0.44,0.52 -3e-5,0.34669 -0.14669,0.52002 -0.44,0.52 -0.29336,2e-5 -0.44002,-0.17331 -0.44,-0.52 -2e-5,-0.34664 0.14664,-0.51998 0.44,-0.52 m 1.04,0 c 0.18664,0.0267 0.27997,0.12002 0.28,0.28 -3e-5,0.10669 -0.0934,0.20002 -0.28,0.28 -0.16003,0.0534 -0.24003,-0.04 -0.24,-0.28 -3e-5,-0.21331 0.08,-0.30664 0.24,-0.28 m -1.56,-1.04 c 0.29331,3e-5 0.43998,0.17336 0.44,0.52 -2e-5,0.34669 -0.14669,0.52002 -0.44,0.52 -0.29336,2e-5 -0.44002,-0.17331 -0.44,-0.52 -2e-5,-0.34664 0.14664,-0.51997 0.44,-0.52 m 1.04,-0.56 c 0.18664,0.10669 0.27997,0.29336 0.28,0.56 -3e-5,0.29336 -0.0934,0.46669 -0.28,0.52 -0.08,0.0267 -0.14669,-0.0133 -0.2,-0.12 -0.0534,-0.13331 -0.08,-0.26664 -0.08,-0.4 -3e-5,-0.13331 0.0266,-0.26664 0.08,-0.4 0.0533,-0.13331 0.11997,-0.18664 0.2,-0.16 m -0.52,-1.04 c 0.29331,3e-5 0.43997,0.17336 0.44,0.52 -3e-5,0.34669 -0.14669,0.52003 -0.44,0.52 -0.29336,3e-5 -0.44002,-0.17331 -0.44,-0.52 -2e-5,-0.34664 0.14664,-0.51997 0.44,-0.52 m -16.360002,-0.52 c 0.293326,3e-5 0.439993,0.17336 0.44,0.52 -7e-6,0.34669 -0.146674,0.52003 -0.44,0.52 -0.29334,3e-5 -0.440006,-0.17331 -0.44,-0.52 -6e-6,-0.34664 0.14666,-0.51997 0.44,-0.52 m 15.840002,0 c 0.29331,3e-5 0.43998,0.17336 0.44,0.52 -2e-5,0.34669 -0.14669,0.52003 -0.44,0.52 -0.29336,3e-5 -0.44002,-0.17331 -0.44,-0.52 -2e-5,-0.34664 0.14664,-0.51997 0.44,-0.52 m -0.56,-0.52 c 0.29331,3e-5 0.43998,0.17336 0.44,0.52 -2e-5,0.34669 -0.14669,0.52003 -0.44,0.52 -0.29336,3e-5 -0.44002,-0.17331 -0.44,-0.52 -2e-5,-0.34664 0.14664,-0.51997 0.44,-0.52 m -0.52,-0.559997 c 0.29331,2.5e-5 0.43998,0.186692 0.44,0.559997 -2e-5,0.34669 -0.14669,0.52003 -0.44,0.52 -0.29336,3e-5 -0.44002,-0.17331 -0.44,-0.52 -2e-5,-0.373305 0.14664,-0.559972 0.44,-0.559997 m -0.52,-0.52 c 0.29331,2.6e-5 0.43998,0.173359 0.44,0.52 -2e-5,0.373357 -0.14669,0.560027 -0.44,0.559997 -0.29336,3e-5 -0.44002,-0.18664 -0.44,-0.559997 -2e-5,-0.346641 0.14664,-0.519974 0.44,-0.52" />
          <path
             id="path2983"
             d="m 131.65853,99.923063 c -1e-5,1.920027 0.04,3.826687 0.12,5.719997 0.08,1.86669 0.11999,3.77335 0.12,5.72 -1e-5,1.89335 -0.0933,3.77335 -0.28,5.64 -0.16001,1.86668 -0.50668,3.70667 -1.04,5.52 -0.0533,0.29334 -0.21334,0.56001 -0.48,0.8 -0.24001,0.21334 -0.49334,0.42667 -0.76,0.64 -0.26667,0.18667 -0.50667,0.38667 -0.72,0.6 -0.21334,0.18667 -0.32001,0.38667 -0.32,0.6 l 10.2,0 0,-0.52 c -1.01335,-0.13333 -1.88001,-0.49333 -2.6,-1.08 -0.72001,-0.58666 -1.08001,-1.46666 -1.08,-2.64 l 0,-20.92 c 0.95999,3e-5 1.98665,-0.02664 3.08,-0.08 1.09332,-0.07998 2.11998,-0.02664 3.08,0.16 0.98665,0.16003 1.83998,0.53336 2.56,1.12 0.71998,0.58669 1.15998,1.53336 1.32,2.84 l 0.64,0 c -2e-5,-0.31998 -0.0134,-0.82664 -0.04,-1.52 -2e-5,-0.69331 -0.04,-1.38664 -0.12,-2.08 -0.08,-0.719975 -0.20002,-1.346641 -0.36,-1.88 -0.16002,-0.559973 -0.37336,-0.839973 -0.64,-0.84 l -21.12,0 -1.08,0.52 c 0.0267,2.7e-5 -0.0133,0.17336 -0.12,0.52 -0.08,0.320026 -0.18667,0.720026 -0.32,1.2 -0.10667,0.45336 -0.22667,0.92003 -0.36,1.4 -0.13333,0.45336 -0.21333,0.81336 -0.24,1.08 -0.0267,0.10669 -0.0533,0.33336 -0.08,0.68 0,0.34669 0,0.56002 0,0.64 0.32,2e-5 0.54667,-0.10664 0.68,-0.32 0.16,-0.23997 0.28,-0.51997 0.36,-0.84 0.08,-0.31997 0.16,-0.63997 0.24,-0.96 0.08,-0.31997 0.2,-0.57331 0.36,-0.76 0.48,-0.45331 1.10667,-0.75997 1.88,-0.92 0.77333,-0.159975 1.58666,-0.239975 2.44,-0.24 0.85333,2.5e-5 1.69333,0.04002 2.52,0.12 0.82666,0.05336 1.54666,0.08003 2.16,0.08 m 0.52,15.72 0,7.92 -1.04,0.56 c 0.21332,-0.58666 0.38666,-1.27999 0.52,-2.08 0.13332,-0.82666 0.23999,-1.63999 0.32,-2.44 0.08,-0.82666 0.13332,-1.59999 0.16,-2.32 0.0267,-0.71999 0.04,-1.26665 0.04,-1.64 m 2.64,7.92 c 0.29332,0 0.43999,0.18667 0.44,0.56 -1e-5,0.34667 -0.14668,0.52 -0.44,0.52 -0.26668,0 -0.40001,-0.17333 -0.4,-0.52 -1e-5,-0.37333 0.13332,-0.56 0.4,-0.56 m -1.6,-0.52 0.56,-4.76 c 0.0267,0.16001 0.0667,0.46668 0.12,0.92 0.0533,0.45334 0.10666,0.93334 0.16,1.44 0.08,0.50667 0.13332,1.00001 0.16,1.48 0.0533,0.45334 0.08,0.76001 0.08,0.92 l 0,0.64 c -0.0267,0 -0.10668,0 -0.24,0 -0.13334,-0.0267 -0.22668,-0.0667 -0.28,-0.12 -0.08,-0.08 -0.20001,-0.17333 -0.36,-0.28 -0.13334,-0.13333 -0.20001,-0.21333 -0.2,-0.24 m -0.52,-13.72 c 0.18666,0.16002 0.27999,0.42669 0.28,0.8 -1e-5,0.34668 -0.0933,0.61335 -0.28,0.8 -0.0533,0.08 -0.10668,0.0267 -0.16,-0.16 -0.0533,-0.18665 -0.08,-0.39998 -0.08,-0.64 -1e-5,-0.23998 0.0267,-0.45331 0.08,-0.64 0.0533,-0.18665 0.10666,-0.23998 0.16,-0.16 m 1.08,-1.04 c 0.29332,2e-5 0.43999,0.17335 0.44,0.52 -10e-6,0.34669 -0.14668,0.52002 -0.44,0.52 -0.26668,2e-5 -0.40001,-0.17331 -0.4,-0.52 -1e-5,-0.34665 0.13332,-0.51998 0.4,-0.52 m -1.08,-8.48 c 0.10666,0.32003 0.17332,0.88003 0.2,1.68 0.0267,0.80003 0.04,1.66669 0.04,2.6 -10e-6,0.88002 -0.0133,1.72002 -0.04,2.52 -0.0267,0.80002 -0.0933,1.36002 -0.2,1.68 -0.0533,0.16002 -0.10668,0.0133 -0.16,-0.44 -0.0533,-0.47998 -0.08,-1.14665 -0.08,-2 l 0,-1.8 0,-1.76 c -1e-5,-0.93331 0.0267,-1.61331 0.08,-2.04 0.0533,-0.453308 0.10666,-0.599974 0.16,-0.44 m 1.08,0 c 0.08,0.29336 0.13332,0.76003 0.16,1.4 0.0267,0.61336 0.04,1.29336 0.04,2.04 -1e-5,0.77336 -0.0133,1.48002 -0.04,2.12 -0.0267,0.64002 -0.08,1.08002 -0.16,1.32 -0.0533,0.10669 -0.10668,0.08 -0.16,-0.08 -0.0267,-0.15998 -0.0533,-0.39998 -0.08,-0.72 -1e-5,-0.34664 -0.0133,-0.74664 -0.04,-1.2 -10e-6,-0.47998 -10e-6,-0.95998 0,-1.44 -10e-6,-0.47997 -10e-6,-0.94664 0,-1.4 0.0267,-0.45331 0.04,-0.85331 0.04,-1.2 0.0267,-0.34664 0.0533,-0.59997 0.08,-0.76 0.0533,-0.159975 0.10666,-0.186641 0.16,-0.08 m 9.48,-1.04 c -0.13335,0.186693 -0.40002,0.280026 -0.8,0.28 -0.32002,2.6e-5 -0.57335,-0.09331 -0.76,-0.28 -0.08,-0.07997 -0.0267,-0.133307 0.16,-0.16 0.18665,-0.02664 0.38665,-0.03997 0.6,-0.04 0.23998,2.7e-5 0.45331,0.01336 0.64,0.04 0.21331,0.02669 0.26665,0.08003 0.16,0.16" />
        </g>
      </g>
    </g>
  </g>
</svg>
